<?xml version="1.0" encoding="UTF-8"?>
<svg width="94px" height="97px" viewBox="0 0 94 97" version="1.1" xmlns="http://www.w3.org/2000/svg" xmlns:xlink="http://www.w3.org/1999/xlink">
    <title>ico-partner-02</title>
    <defs></defs>
    <g id="Page-1" stroke="none" stroke-width="1" fill="none" fill-rule="evenodd">
        <g id="ico-partner-02" fill-rule="nonzero">
            <path d="M50.2285013,11.6818639 C52.116416,10.5866577 53.3998293,8.58933959 53.3998293,6.2856185 C53.3998293,2.81897419 50.5295573,0 46.9998293,0 C43.4701013,0 40.5998293,2.81897419 40.5998293,6.2856185 C40.5998293,8.58933959 41.8829013,10.5866577 43.7711573,11.6818639 C40.9664213,12.9044586 39,15.6543748 39,18.8568555 L39,20.4284278 C39,21.2960107 39.7150933,22 40.6001707,22 L45.4003413,22 L45.4003413,33 L48.5996587,33 L48.5996587,21.9996648 L53.3998293,21.9996648 C54.2845653,21.9996648 55,21.2956755 55,20.4280925 L55,18.8568555 C54.9996587,15.6543748 53.0332373,12.9044586 50.2285013,11.6818639 Z M46.9998293,3.14280925 C48.7645227,3.14280925 50.1998293,4.55246396 50.1998293,6.2856185 C50.1998293,8.01877305 48.7645227,9.42842776 46.9998293,9.42842776 C45.235136,9.42842776 43.7998293,8.01877305 43.7998293,6.2856185 C43.7998293,4.55246396 45.2347947,3.14280925 46.9998293,3.14280925 Z M42.1996587,18.8568555 C42.1996587,16.2577942 44.3531307,14.142474 46.9998293,14.142474 C49.646528,14.142474 51.8,16.2574589 51.8,18.8568555 L42.1996587,18.8568555 Z" id="Shape" fill="#333333"></path>
            <path d="M1.57727113,32.8840399 L14.1967853,32.8840399 C15.0690461,32.8840399 15.7743928,32.1837613 15.7743928,31.3207513 L15.7743928,31.1143358 L32.2507671,42 L34,39.3989652 L15.2426906,27.0080355 C14.4949424,25.0509235 12.9900232,23.4659596 11.0688284,22.6202898 C12.9318052,21.5308564 14.1967853,19.5440659 14.1967853,17.2524875 C14.1967853,13.8041156 11.3669855,11 7.88702822,11 C4.40707099,11 1.57727113,13.8041156 1.57727113,17.2524875 C1.57727113,19.5440659 2.84225123,21.5308564 4.70388197,22.6202898 C1.93869402,23.8364403 1.20365093e-07,26.5718619 1.20365093e-07,29.7574626 L1.20365093e-07,31.3207513 C-0.000336400013,32.1837613 0.705010312,32.8840399 1.57727113,32.8840399 Z M7.88702822,14.1265772 C9.62683858,14.1265772 11.0419068,15.5288018 11.0419068,17.252821 C11.0419068,18.9768402 9.62683858,20.3790648 7.88702822,20.3790648 C6.14721787,20.3790648 4.73214968,18.9768402 4.73214968,17.252821 C4.73214968,15.5288018 6.14688135,14.1265772 7.88702822,14.1265772 Z M7.88702822,25.0682637 C10.4960707,25.0682637 12.6195143,27.1721007 12.6195143,29.7577961 L3.15454214,29.7577961 C3.15454214,27.1721007 5.27798573,25.0682637 7.88702822,25.0682637 Z" id="Shape" fill="#333333"></path>
            <path d="M89.2957245,22.6202898 C91.1569082,21.5308564 92.4221496,19.5440659 92.4221496,17.2524875 C92.4221496,13.8041156 89.5925178,11 86.1127672,11 C82.6330166,11 79.8033848,13.8041156 79.8033848,17.2524875 C79.8033848,19.5440659 81.0682898,21.5308564 82.92981,22.6202898 C81.0087292,23.4659596 79.5038994,25.0509235 78.7561956,27.0080355 L60,39.3989652 L61.7491291,42 L78.2262074,31.1143358 L78.2262074,31.3207513 C78.2262074,32.1837613 78.9311758,32.8840399 79.8037213,32.8840399 L92.4224861,32.8840399 C93.2946952,32.8840399 94,32.1837613 94,31.3207513 L94,29.7574626 C93.999327,26.5718619 92.0607482,23.8364403 89.2957245,22.6202898 Z M86.1124307,14.1265772 C87.8521378,14.1265772 89.2671219,15.5288018 89.2671219,17.252821 C89.2671219,18.9768402 87.8521378,20.3790648 86.1124307,20.3790648 C84.3727237,20.3790648 82.9577395,18.9768402 82.9577395,17.252821 C82.9577395,15.5288018 84.3727237,14.1265772 86.1124307,14.1265772 Z M81.3805622,29.7577961 C81.3805622,27.1724342 83.5035432,25.0682637 86.1127672,25.0682637 C88.7216548,25.0682637 90.8449723,27.1721007 90.8449723,29.7577961 L81.3805622,29.7577961 Z" id="Shape" fill="#333333"></path>
            <path d="M89.2987953,66.6818639 C91.1587641,65.5883339 92.4231796,63.5910158 92.4231796,61.2856185 C92.4231796,57.8189742 89.5953949,55 86.1179159,55 C82.6404368,55 79.8126521,57.8189742 79.8126521,61.2856185 C79.8126521,63.5910158 81.0767314,65.5879987 82.9370364,66.6818639 C82.0653967,67.0683875 81.2741281,67.6010727 80.6025755,68.2594703 L61.7954028,55.2795843 L60,57.8645659 L78.8371017,70.8649011 C78.4540779,71.7874623 78.2365043,72.7961783 78.2365043,73.8568555 L78.2365043,75.4284278 C78.2365043,76.2973517 78.9410124,77 79.8129883,77 L92.4235159,77 C93.2951556,77 94,76.2976869 94,75.4284278 L94,73.8568555 C93.9993274,70.6543748 92.0620141,67.9044586 89.2987953,66.6818639 Z M86.1175796,58.1431445 C87.856151,58.1431445 89.2702115,59.5527992 89.2702115,61.2859537 C89.2702115,63.0191083 87.856151,64.428763 86.1175796,64.428763 C84.3790082,64.428763 82.9649477,63.0191083 82.9649477,61.2859537 C82.9649477,59.5527992 84.3790082,58.1431445 86.1175796,58.1431445 Z M81.3887999,73.8571907 C81.3887999,71.2581294 83.510395,69.1428093 86.1179159,69.1428093 C88.7251004,69.1428093 90.8470318,71.2577942 90.8470318,73.8571907 L81.3887999,73.8571907 Z" id="Shape" fill="#333333"></path>
            <path d="M50.2286031,86.6817591 C52.1164775,85.588218 53.3998635,83.5908795 53.3998635,81.2854589 C53.3998635,78.3642089 51.3536138,75.9253642 48.5997952,75.2230439 L48.5997952,64 L45.3998635,64 L45.3998635,75.2230439 C42.6463862,75.9253642 40.5997952,78.3642089 40.5997952,81.2854589 C40.5997952,83.5908795 41.8828398,85.5878827 43.7710556,86.6817591 C40.9663794,87.9043662 39,90.6543103 39,93.8568236 L39,95.4284118 C39,96.2973445 39.7150781,97 40.6001365,97 L53.3998635,97 C54.2845806,97 55,96.2976798 55,95.4284118 L55,93.8568236 C54.9996587,90.6543103 53.0332793,87.9043662 50.2286031,86.6817591 Z M47,78.1426177 C48.7646557,78.1426177 50.1999317,79.5522867 50.1999317,81.2854589 C50.1999317,83.018631 48.7646557,84.4283 47,84.4283 C45.2353443,84.4283 43.8000683,83.018631 43.8000683,81.2854589 C43.8000683,79.5522867 45.235003,78.1426177 47,78.1426177 Z M42.1999317,93.8568236 C42.1999317,91.2577358 44.3533578,89.1423942 47,89.1423942 C49.6466422,89.1423942 51.8000683,91.2574006 51.8000683,93.8568236 L42.1999317,93.8568236 Z" id="Shape" fill="#333333"></path>
            <path d="M32.205606,55.2795886 L13.3984333,68.2596724 C12.7268807,67.6012648 11.9356121,67.0685714 11.0639725,66.6820419 C12.9225961,65.58816 14.1866754,63.5911467 14.1866754,61.2857143 C14.1866754,57.8190171 11.3588907,55 7.88141159,55 C4.40393251,55 1.57614781,57.8190171 1.57614781,61.2857143 C1.57614781,63.5911467 2.84022709,65.58816 4.70053211,66.6820419 C1.93731331,67.9046552 0,70.6546133 0,73.8571429 L0,75.4284038 C0,76.297341 0.70450814,77 1.57648409,77 L14.1870117,77 C15.0586513,77 15.7634957,76.2976762 15.7634957,75.4284038 L15.7634957,73.8568076 C15.7634957,72.7961143 15.5459221,71.7873829 15.1628983,70.8648076 L34,57.8642743 L32.205606,55.2795886 Z M7.88141159,58.1428571 C9.61998299,58.1428571 11.0340435,59.5525333 11.0340435,61.2857143 C11.0340435,63.0188952 9.61998299,64.4285714 7.88141159,64.4285714 C6.14284019,64.4285714 4.7287797,63.0188952 4.7287797,61.2857143 C4.7287797,59.5525333 6.14250391,58.1428571 7.88141159,58.1428571 Z M3.15229561,73.8571429 C3.15229561,71.2580419 5.27389077,69.1426895 7.88141159,69.1426895 C10.4889324,69.1426895 12.6105276,71.2577067 12.6105276,73.8571429 L3.15229561,73.8571429 Z" id="Shape" fill="#333333"></path>
            <path d="M47,65 C37.626806,65 30,57.373194 30,48 C30,38.626806 37.626806,31 47,31 C56.373194,31 64,38.626806 64,48 C64,57.373194 56.3728643,65 47,65 Z" id="Shape" fill="#FFD54B"></path>
            <path d="M50.2282618,47.6818639 C52.1161362,46.5866577 53.3995221,44.5893396 53.3995221,42.2856185 C53.3995221,38.8189742 50.5293114,36 46.9996587,36 C43.470006,36 40.5997952,38.8189742 40.5997952,42.2856185 C40.5997952,44.5893396 41.8828398,46.5866577 43.7710556,47.6818639 C40.9663794,48.9044586 39,51.6543748 39,54.8568555 L39,56.4284278 C39,57.2973517 39.7150781,58 40.6001365,58 L53.3998635,58 C54.2845806,58 55,57.2976869 55,56.4284278 L55,54.8568555 C54.9993173,51.6543748 53.032938,48.9044586 50.2282618,47.6818639 Z M46.9996587,39.1431445 C48.7643144,39.1431445 50.1995904,40.5527992 50.1995904,42.2859537 C50.1995904,44.0191083 48.7643144,45.428763 46.9996587,45.428763 C45.235003,45.428763 43.7997269,44.0191083 43.7997269,42.2859537 C43.7997269,40.5527992 45.2346617,39.1431445 46.9996587,39.1431445 Z M42.1995904,54.8571907 C42.1995904,52.2581294 44.3530165,50.1428093 46.9996587,50.1428093 C49.6463009,50.1428093 51.7997269,52.2577942 51.7997269,54.8571907 L42.1995904,54.8571907 Z" id="Shape" fill="#333333"></path>
        </g>
    </g>
</svg>