<?xml version="1.0" encoding="UTF-8"?>
<svg width="96px" height="95px" viewBox="0 0 96 95" version="1.1" xmlns="http://www.w3.org/2000/svg" xmlns:xlink="http://www.w3.org/1999/xlink">
    <title>ico-partner-03</title>
    <defs></defs>
    <g id="Page-1" stroke="none" stroke-width="1" fill="none" fill-rule="evenodd">
        <g id="ico-partner-03" fill-rule="nonzero">
            <path d="M40,28 C36.69088,28 34,25.30912 34,22 C34,18.69088 36.69088,16 40,16 C43.30912,16 46,18.69088 46,22 C46,25.30912 43.3088,28 40,28 Z" id="Shape" fill="#FFD54B"></path>
            <path d="M57,22 C53.69088,22 51,19.30912 51,16 C51,12.69088 53.69088,10 57,10 C60.30912,10 63,12.69088 63,16 C63,19.30912 60.30912,22 57,22 Z" id="Shape" fill="#FFD54B"></path>
            <rect id="Rectangle-path" fill="#333333" x="36" y="6" width="3" height="8"></rect>
            <rect id="Rectangle-path" fill="#333333" x="42" y="4" width="3" height="9"></rect>
            <rect id="Rectangle-path" fill="#333333" x="52" y="2" width="3" height="6"></rect>
            <rect id="Rectangle-path" fill="#333333" x="59" y="0" width="3" height="8"></rect>
            <path d="M96,29.3883366 L94.149472,22 L86.7078458,22 L86.7078458,25.1063618 L89.8769538,25.1063618 L80.181688,38.4092114 L72.5843292,32.3439364 L64.857802,40.0540093 C64.5665921,37.7630881 62.6227573,35.9784626 60.2475866,35.9784626 L59.8165826,35.9784626 L66.042565,25.1060305 L31.0180104,25.1060305 L36.890689,34.7405567 L31.6671728,39.0848244 L1.10042164,39.0848244 L1.10042164,42.1911862 L32.7938266,42.1911862 L41.9335688,34.5914513 L51.5604318,37.3359841 L54.8354646,41.4191518 C55.2681289,41.9595759 55.4597231,42.6368456 55.3723933,43.323393 C55.2837353,44.0099404 54.9304316,44.6172962 54.3745759,45.0334659 C53.3707815,45.7866137 51.941628,45.6825712 51.0530557,44.797548 L47.9121721,41.6633532 L39.0417245,48.7442015 L39.9538724,49.8810471 C39.659674,53.8121272 37.8805372,57.6361829 34.8376091,60.758118 C34.8156936,60.7813121 34.7970987,60.806163 34.7751832,60.8280318 L34.1555735,60.8280318 L31.0425823,59.2746852 L1.10042164,59.2746852 L1.10042164,62.3810471 L30.3064221,62.3810471 L32.5959234,63.5225315 C30.7264684,66.2670643 29.5778991,69.4105368 29.2385416,72.731279 L22.891028,66.3989397 L0,89.2422134 L2.20084327,91.4383698 L22.8913601,70.7919152 L29.2574686,77.1444665 C30.4153353,86.7634195 38.6741425,94.5868125 48.5158434,94.98277 C48.7990841,94.9937044 49.0809966,95 49.3609167,95 C54.6139856,95 59.5605702,93.0195494 63.3662227,89.3711067 C67.3774156,85.5284957 69.5858961,80.3565275 69.5858961,74.8084824 C69.5858961,69.786945 67.7400168,65.0639496 64.4028902,61.3565275 C64.7203323,60.7276342 64.9165753,60.0284957 64.9165753,59.2766733 C64.9165753,58.0791915 64.4480494,56.9966865 63.7025917,56.1703115 C64.4497096,55.3439364 64.9165753,54.2614314 64.9165753,53.0639496 C64.9165753,51.8664679 64.4480494,50.7839629 63.7025917,49.9575878 C64.4497096,49.1312127 64.9165753,48.0487078 64.9165753,46.851226 C64.9165753,46.1335321 64.7405875,45.462558 64.4480494,44.8555335 L72.8141095,36.5072896 L80.7817067,42.8674619 L92.2312053,27.1570577 L92.9799835,30.1438038 L96,29.3883366 Z M61.8039161,40.638171 C61.8039161,41.4940358 61.1049459,42.1911862 60.2472545,42.1911862 L58.4216304,42.1911862 C58.2798441,41.2110669 57.9032967,40.2760106 57.265092,39.4794566 L56.9476499,39.0848244 L60.2472545,39.0848244 C61.1049459,39.0848244 61.8039161,39.7823062 61.8039161,40.638171 Z M41.2050458,31.1527502 L39.3093587,32.7292909 L36.5559802,28.2127237 L60.6785906,28.2127237 L56.2317449,35.9791252 L54.4589172,35.9791252 L53.3707815,34.6216037 L41.2050458,31.1527502 Z M56.2407103,47.5188867 C57.0236899,46.9333996 57.6027892,46.1630219 57.9886341,45.2978794 L60.2472545,45.2978794 C61.1049459,45.2978794 61.8039161,45.9953612 61.8039161,46.851226 C61.8039161,47.7070908 61.1049459,48.4045726 60.2472545,48.4045726 L54.4648941,48.4045726 C55.0921411,48.2190192 55.6944841,47.9274354 56.2407103,47.5188867 Z M61.8039161,53.0639496 C61.8039161,53.9198144 61.1049459,54.6172962 60.2472545,54.6172962 L54.0212721,54.6172962 C53.1635808,54.6172962 52.4646105,53.9198144 52.4646105,53.0639496 C52.4646105,52.2080848 53.1635808,51.510603 54.0212721,51.510603 L60.2472545,51.510603 C61.1049459,51.5102717 61.8039161,52.2077535 61.8039161,53.0639496 Z M61.8039161,59.2766733 C61.8039161,60.1325381 61.1049459,60.8300199 60.2472545,60.8300199 L54.0212721,60.8300199 C53.1635808,60.8300199 52.4646105,60.1325381 52.4646105,59.2766733 C52.4646105,58.4208085 53.1635808,57.7233267 54.0212721,57.7233267 L60.2472545,57.7233267 C61.1049459,57.7229954 61.8039161,58.4204771 61.8039161,59.2766733 Z M61.2108706,87.1312127 C57.8192874,90.3820411 53.3784187,92.0579854 48.6420233,91.8793903 C39.7559692,91.5222001 32.3937035,84.0046388 32.2333221,75.1222664 C32.1509732,70.5420808 33.867684,66.2100729 37.067673,62.925116 C40.781347,59.1153082 42.8842348,54.3701127 43.0867867,49.4930417 L47.6800675,45.8260437 L48.8505522,46.9940358 C49.02654,47.1696488 49.2211227,47.3141153 49.4123849,47.4599072 C49.539893,48.4151756 49.9493136,49.2740225 50.5656028,49.9559311 C49.8184849,50.7823062 49.3516193,51.8648111 49.3516193,53.0622929 C49.3516193,54.2597747 49.8201452,55.3422797 50.5656028,56.1686547 C49.8184849,56.9950298 49.3516193,58.0775348 49.3516193,59.2750166 C49.3516193,60.4724983 49.8201452,61.5550033 50.5656028,62.3813784 L47.7949576,62.3813784 L47.7949576,65.4877402 L47.0166268,65.4877402 C44.0125488,65.4877402 41.5689752,67.92611 41.5689752,70.9237906 C41.5689752,73.9214712 44.0125488,76.359841 47.0166268,76.359841 L51.6862797,76.359841 C52.9736468,76.359841 54.0209401,77.4052353 54.0209401,78.6895295 C54.0209401,79.9738237 52.9733147,81.0208748 51.6862797,81.0208748 L47.0166268,81.0208748 C45.7292597,81.0208748 44.6819664,79.9754805 44.6819664,78.6911862 L44.6819664,77.9145129 L41.5689752,77.9145129 L41.5689752,78.6911862 C41.5689752,81.6888668 44.0125488,84.1272366 47.0166268,84.1272366 L47.7949576,84.1272366 L47.7949576,87.2335984 L50.9079489,87.2335984 L50.9079489,84.1272366 L51.6862797,84.1272366 C54.6903577,84.1272366 57.1339313,81.6888668 57.1339313,78.6911862 C57.1339313,75.6935056 54.6903577,73.2551359 51.6862797,73.2551359 L47.0166268,73.2551359 C45.7292597,73.2551359 44.6819664,72.2097416 44.6819664,70.9254473 C44.6819664,69.6408217 45.7295917,68.5957588 47.0166268,68.5957588 L51.6862797,68.5957588 C52.9736468,68.5957588 54.0209401,69.6411531 54.0209401,70.9254473 L54.0209401,71.7021206 L57.1339313,71.7021206 L57.1339313,70.9254473 C57.1339313,67.9277667 54.6903577,65.489397 51.6862797,65.489397 L50.9079489,65.489397 L50.9079489,62.7246521 C51.7360875,63.4701789 52.8209027,63.9360504 54.0209401,63.9360504 L60.2469225,63.9360504 C60.9319466,63.9360504 61.5791167,63.7793241 62.1661853,63.5135852 C64.9414792,66.6355202 66.4729049,70.5990722 66.4729049,74.8081511 C66.4732369,79.5016567 64.6037819,83.879059 61.2108706,87.1312127 Z" id="Shape" fill="#333333"></path>
        </g>
    </g>
</svg>