<?xml version="1.0" encoding="iso-8859-1"?>
<svg version="1.1" id="Capa_1" xmlns="http://www.w3.org/2000/svg" xmlns:xlink="http://www.w3.org/1999/xlink" x="0px" y="0px"
	 viewBox="0 0 512.001 512.001" style="enable-background:new 0 0 512.001 512.001;" xml:space="preserve">
<path style="fill:#F7CF9C;" d="M418.112,125.313c-36.869-45.936-85.187-62.983-85.187-62.983
	C215.707,22.627,94.52,120.91,110.912,246.47l-52.503,53.328c-4.966,5.044-1.393,13.577,5.685,13.577h43.312
	c5.707,0,10.333,4.626,10.333,10.333v60.457c0,27.538,22.531,50.07,50.069,50.07h30.807c13.093,0,23.705,10.613,23.705,23.705
	v30.537c0,8.848,7.172,16.021,16.021,16.021h133.501c9.749,0,17.375-8.405,16.428-18.108L377.82,379.239
	c0-9.1,3.964-17.797,10.973-23.6C456.073,299.933,472.539,200.099,418.112,125.313z"/>
<g>
	<path style="fill:#EAB883;" d="M89.076,299.798l45.568-46.284c4.3-4.367,6.422-10.389,5.965-16.502
		c-6.972-93.228,62.202-174.394,154.6-182.73C188.722,44.369,99.16,135.051,110.403,242.151c0.291,2.77-0.675,5.521-2.629,7.505
		l-49.366,50.141c-4.966,5.044-1.393,13.576,5.685,13.576h30.668C87.683,313.375,84.11,304.842,89.076,299.798z"/>
	<path style="fill:#EAB883;" d="M148.407,384.165v-60.457c0-5.707-4.626-10.333-10.333-10.333h-30.668
		c5.707,0,10.333,4.626,10.333,10.333v60.457c0,27.538,22.531,50.07,50.069,50.07h30.668
		C170.939,434.235,148.407,411.703,148.407,384.165z"/>
	<path style="fill:#EAB883;" d="M252.99,488.478V457.94c0-13.093-10.613-23.705-23.706-23.705h-30.668
		c13.093,0,23.705,10.613,23.705,23.705v30.537c0,8.848,7.172,16.021,16.021,16.021h30.668
		C260.162,504.499,252.99,497.326,252.99,488.478z"/>
</g>
<circle style="fill:#70B5E8;" cx="279.843" cy="224.96" r="105.375"/>
<path style="fill:#52A5D8;" d="M215.211,262.273c-26.488-45.879-14.551-103.393,25.819-135.292
	c-60.057,23.881-84.457,95.21-52.441,150.663c32.066,55.54,106.055,69.933,156.698,29.916
	C297.476,326.571,241.7,308.152,215.211,262.273z"/>
<path style="fill:#92B620;" d="M453.466,60.663c-2.277-2.956-10.841-7.446-9.121-17.477l1.168-6.808
	c0.763-4.445-2.278-8.651-6.758-9.302c-3.418-1.008-13.1,0.323-17.586-8.768l-3.12-6.321c-1.999-4.052-6.936-5.655-10.935-3.553
	c-3.358,1.193-10.388,7.951-19.363,3.233l-6.151-3.233c-3.944-2.073-8.911-0.548-10.935,3.553
	c-2.038,2.976-3.762,12.628-13.809,14.087l-6.897,1.002c-4.472,0.65-7.522,4.849-6.758,9.302c0.095,3.531,4.341,12.301-2.915,19.373
	l-5.038,4.912c-3.236,3.153-3.235,8.344,0,11.498l5.038,4.911c7.297,7.113,3.011,15.79,2.915,19.374
	c-0.764,4.454,2.287,8.652,6.758,9.302c3.412,1.007,13.099-0.323,17.586,8.768l3.12,6.321c1.425,2.888,4.303,4.48,7.21,4.48
	c3.103,0,4.532-1.574,9.875-4.16c4.136-2.175,9.075-2.175,13.212,0l6.15,3.233c3.992,2.099,8.931,0.507,10.935-3.552
	c2.037-2.976,3.763-12.628,13.809-14.087l6.897-1.002c4.472-0.65,7.522-4.848,6.758-9.302l-1.168-6.808
	c-1.725-10.058,6.873-14.558,9.121-17.477C456.701,69.008,456.701,63.816,453.466,60.663z"/>
<path style="fill:#89A511;" d="M365.429,21.367c-4.932,5.796-10.873,4.533-15.471,5.709c-4.472,0.65-7.522,4.849-6.758,9.302
	c0.095,3.531,4.341,12.301-2.915,19.373l-5.038,4.912c-3.236,3.153-3.235,8.344,0,11.498l5.038,4.911
	c7.297,7.113,3.011,15.79,2.915,19.374c-0.764,4.454,2.287,8.652,6.758,9.302c3.412,1.007,13.099-0.323,17.586,8.768l3.12,6.321
	c1.425,2.888,4.303,4.48,7.21,4.48c3.103,0,4.532-1.574,9.875-4.16c4.136-2.175,9.074-2.175,13.212,0l6.15,3.233
	c3.992,2.099,8.931,0.507,10.935-3.552c2.32-3.687,3.418-10.659,11.103-13.392C382.616,111.178,348.269,64.774,365.429,21.367z"/>
<path d="M246.912,194.719c-2.929-2.928-7.678-2.928-10.606,0l-22.888,22.889c-1.407,1.407-2.197,3.314-2.197,5.304
	c0,1.989,0.79,3.896,2.197,5.304l22.888,22.888c1.464,1.464,3.384,2.196,5.303,2.196c1.919,0,3.839-0.732,5.303-2.196
	c2.929-2.93,2.929-7.678,0-10.607l-17.585-17.584l17.585-17.585C249.841,202.398,249.841,197.649,246.912,194.719z"/>
<path d="M323.393,194.72c-2.929-2.93-7.678-2.929-10.606-0.001c-2.93,2.929-2.93,7.678-0.001,10.606l17.585,17.586l-17.585,17.584
	c-2.929,2.93-2.929,7.678,0,10.607c1.465,1.464,3.385,2.196,5.304,2.196c1.919,0,3.839-0.732,5.304-2.196l22.888-22.888
	c2.929-2.93,2.929-7.678,0-10.606L323.393,194.72z"/>
<path d="M284.652,187.076l-25.706,70.627c-1.417,3.893,0.591,8.196,4.482,9.613c0.848,0.308,1.713,0.454,2.564,0.454
	c3.063,0,5.94-1.892,7.049-4.936l25.706-70.627c1.417-3.893-0.591-8.196-4.482-9.613
	C290.369,181.175,286.069,183.185,284.652,187.076z"/>
<path d="M458.701,77.532c3.026-2.949,4.692-6.897,4.692-11.119s-1.666-8.17-4.691-11.119l-5.039-4.914
	c-1.578-1.537-2.298-3.752-1.926-5.924l1.168-6.808c0.715-4.165-0.259-8.34-2.741-11.757c-2.383-3.279-5.861-5.452-9.837-6.157
	c-1.211-0.3-2.444-0.431-3.739-0.568c-4.935-0.524-7.233-1.22-8.692-4.177l-3.119-6.32c-1.87-3.789-5.111-6.594-9.125-7.897
	c-3.857-1.254-7.947-0.967-11.58,0.799c-1.156,0.47-2.23,1.088-3.359,1.738c-4.286,2.471-6.551,3.255-9.469,1.722l-6.151-3.233
	c-3.684-1.937-8.07-2.307-12.035-1.02c-3.852,1.252-6.989,3.887-8.888,7.448c-0.665,1.069-1.176,2.213-1.712,3.414
	c-2.034,4.558-3.411,6.539-6.678,7.014l-6.895,1.003c-4.182,0.607-7.851,2.822-10.332,6.238c-2.384,3.28-3.375,7.26-2.816,11.26
	c0.088,1.237,0.343,2.441,0.61,3.706c1.022,4.83,1.069,7.221-1.292,9.522l-3.66,3.568c-16.387-5.123-33.28-7.773-50.281-7.87
	c-0.345-0.002-0.688-0.003-1.032-0.003c-33.043,0-65.287,9.111-93.31,26.379c-3.526,2.173-4.624,6.793-2.451,10.319
	c1.417,2.3,3.876,3.566,6.393,3.566c1.342,0,2.701-0.36,3.927-1.116c25.654-15.808,55.178-24.148,85.441-24.148
	c0.315,0,0.631,0.001,0.946,0.003c14.983,0.085,29.88,2.348,44.366,6.719c0.324,3.694,1.933,7.11,4.623,9.732l5.038,4.911
	c2.483,2.421,2.291,4.857,1.307,9.465c-0.275,1.283-0.536,2.506-0.625,3.767c-0.559,3.998,0.434,7.978,2.816,11.258
	c2.383,3.28,5.862,5.454,9.838,6.159c1.21,0.3,2.441,0.43,3.735,0.567c4.938,0.523,7.237,1.22,8.696,4.177l3.12,6.32
	c2.636,5.343,7.976,8.661,13.937,8.661c4.059,0,6.675-1.443,9.444-2.971c1.03-0.568,2.198-1.213,3.699-1.939
	c0.074-0.036,0.148-0.073,0.222-0.112c1.949-1.025,4.278-1.025,6.231,0.001l6.149,3.232c2.267,1.191,4.728,1.795,7.21,1.795
	c1.06,0,2.122-0.121,3.175-0.342c18.041,25.853,28.081,55.613,29.073,86.283c1.646,50.869-19.884,98.652-59.069,131.097
	c-8.7,7.204-13.691,17.912-13.691,29.377c0,0.243,0.012,0.486,0.035,0.728l10.451,107.153c0.25,2.56-0.563,5.019-2.292,6.924
	c-1.728,1.905-4.097,2.955-6.67,2.955h-13.367c-4.142,0-7.5,3.357-7.5,7.5s3.358,7.5,7.5,7.5h13.367
	c6.759,0,13.24-2.871,17.781-7.877c4.54-5.005,6.768-11.734,6.111-18.46l-10.413-106.765c0.097-6.852,3.093-13.208,8.255-17.482
	c42.784-35.425,66.292-87.596,64.495-143.135c-1.101-34.055-12.367-67.042-32.594-95.552l2.414-4.891
	c0.976-1.977,2.86-3.346,5.041-3.663l6.896-1.002c4.181-0.607,7.851-2.822,10.332-6.237c2.481-3.416,3.455-7.59,2.74-11.756
	l-1.168-6.807c-0.372-2.173,0.348-4.389,1.925-5.927L458.701,77.532z M448.232,66.79l-5.04,4.912
	c-5.114,4.985-7.446,12.165-6.238,19.205l1.167,6.807c0.01,0.055,0.039,0.223-0.091,0.401c-0.13,0.179-0.298,0.203-0.354,0.211
	l-6.896,1.002c-7.067,1.026-13.176,5.463-16.337,11.87l-3.118,6.319c-0.027,0.056-0.101,0.203-0.31,0.271
	c-0.21,0.068-0.361-0.011-0.412-0.037l-6.149-3.231c-6.28-3.305-13.775-3.325-20.073-0.063c-1.809,0.879-3.189,1.641-4.304,2.255
	c-0.828,0.457-1.859,1.025-2.2,1.105c-0.079,0-0.348-0.021-0.484-0.299l-3.12-6.321c-5.351-10.841-15.628-11.932-20.566-12.455
	c-0.594-0.063-1.399-0.148-1.698-0.21c-0.318-0.09-0.642-0.159-0.969-0.206c-0.056-0.008-0.224-0.033-0.353-0.211
	s-0.1-0.345-0.091-0.4c0.057-0.327,0.091-0.657,0.104-0.989c0.034-0.304,0.204-1.098,0.329-1.682
	c1.032-4.828,3.18-14.877-5.504-23.342l-5.039-4.913c-0.04-0.038-0.161-0.156-0.161-0.377c0-0.22,0.121-0.338,0.162-0.378
	l5.038-4.911c8.657-8.438,6.522-18.524,5.497-23.37c-0.122-0.576-0.288-1.358-0.323-1.658c-0.012-0.33-0.047-0.659-0.103-0.985
	c-0.009-0.055-0.038-0.222,0.091-0.399c0.13-0.178,0.298-0.202,0.354-0.211l6.895-1.003c11.969-1.738,16.19-11.199,18.22-15.745
	c0.256-0.575,0.607-1.362,0.7-1.526c0.2-0.293,0.38-0.6,0.537-0.919c0.046-0.093,0.121-0.206,0.3-0.265
	c0.103-0.032,0.256-0.054,0.419,0.032l6.15,3.233c10.701,5.626,19.641,0.475,23.939-2.002c0.518-0.298,1.221-0.703,1.498-0.829
	c0.311-0.114,0.613-0.248,0.905-0.402c0.051-0.025,0.199-0.105,0.411-0.037c0.21,0.068,0.285,0.221,0.31,0.271l3.119,6.319
	c5.35,10.841,15.624,11.933,20.562,12.456c0.595,0.063,1.402,0.149,1.702,0.21c0.318,0.091,0.643,0.16,0.971,0.207
	c0.06,0.009,0.224,0.033,0.352,0.21c0.131,0.179,0.102,0.347,0.093,0.401l-1.168,6.809c-1.208,7.041,1.125,14.221,6.239,19.203
	l5.038,4.912l0.001,0.001c0.039,0.039,0.161,0.157,0.161,0.378C448.393,66.633,448.271,66.751,448.232,66.79z"/>
<path d="M418.809,48.425c-3.116-2.726-7.854-2.41-10.583,0.708l-18.684,21.36l-5.594-6.827c-2.626-3.204-7.351-3.672-10.555-1.049
	c-3.204,2.625-3.674,7.351-1.049,10.555l11.209,13.682c1.397,1.706,3.476,2.711,5.681,2.746c0.041,0.001,0.081,0.001,0.121,0.001
	c2.161,0,4.22-0.933,5.646-2.563l24.517-28.029C422.243,55.891,421.927,51.152,418.809,48.425z"/>
<path d="M323.476,496.999h-85.133c-4.698,0-8.521-3.822-8.521-8.52V457.94c0-17.207-13.999-31.205-31.205-31.205h-30.807
	c-23.473,0-42.569-19.097-42.569-42.569v-60.457c0-9.834-8-17.835-17.834-17.835H64.093c-0.171,0-0.318,0-0.441-0.293
	c-0.123-0.294-0.019-0.398,0.1-0.521l52.503-53.328c1.62-1.645,2.392-3.944,2.093-6.232c-0.92-7.043-1.386-14.217-1.386-21.319
	c0-45.323,18.153-87.435,51.115-118.577c3.011-2.844,3.146-7.591,0.301-10.602c-2.844-3.012-7.591-3.147-10.603-0.301
	c-17.439,16.477-31.163,35.918-40.791,57.784c-9.968,22.641-15.023,46.763-15.023,71.696c0,6.522,0.36,13.1,1.073,19.6
	l-49.972,50.757c-4.389,4.458-5.664,11.067-3.247,16.839c2.417,5.771,8.021,9.499,14.278,9.499h43.313
	c1.563,0,2.834,1.271,2.834,2.834v60.457c0,31.744,25.826,57.57,57.57,57.57h30.807c8.935,0,16.205,7.27,16.205,16.205v30.537
	c0,12.971,10.551,23.521,23.522,23.521h85.133c4.143,0,7.5-3.357,7.5-7.5C330.977,500.356,327.618,496.999,323.476,496.999z"/>
<path d="M357.856,284.069c-2.505,3.3-1.86,8.005,1.438,10.509c3.302,2.505,8.004,1.86,10.509-1.438
	c14.996-19.755,22.922-43.332,22.922-68.185c0-62.24-50.636-112.876-112.877-112.876c-62.24,0-112.876,50.636-112.876,112.876
	c0,62.241,50.636,112.877,112.876,112.877c22.379,0,44.014-6.542,62.567-18.92c3.446-2.299,4.376-6.956,2.077-10.401
	c-2.298-3.445-6.956-4.374-10.401-2.077c-16.081,10.728-34.838,16.399-54.242,16.399c-53.968,0-97.875-43.907-97.875-97.876
	s43.907-97.875,97.875-97.875c53.969,0,97.876,43.906,97.876,97.875C377.725,246.505,370.854,266.947,357.856,284.069z"/>
<g>
</g>
<g>
</g>
<g>
</g>
<g>
</g>
<g>
</g>
<g>
</g>
<g>
</g>
<g>
</g>
<g>
</g>
<g>
</g>
<g>
</g>
<g>
</g>
<g>
</g>
<g>
</g>
<g>
</g>
</svg>
