<?xml version="1.0" encoding="UTF-8"?>
<svg width="94px" height="96px" viewBox="0 0 94 96" version="1.1" xmlns="http://www.w3.org/2000/svg" xmlns:xlink="http://www.w3.org/1999/xlink">
    <!-- Generator: Sketch 48.2 (47327) - http://www.bohemiancoding.com/sketch -->
    <title>ico-partner-01</title>
    <desc>Created with Sketch.</desc>
    <defs></defs>
    <g id="Page-1" stroke="none" stroke-width="1" fill="none" fill-rule="evenodd">
        <g id="ico-partner-01" fill-rule="nonzero">
            <path d="M81.4552166,20.1459746 L81.4552166,20.1367256 L79.3529201,19.921356 C78.6681951,11.8000729 76.8746765,0 72.0171051,0 C71.5158422,0 71.0663765,0.141047257 70.622926,0.382512232 L58.8415776,4.26742274 C54.9631397,5.54642737 50.9309812,6.19352708 46.8410103,6.19352708 L31.3285953,6.19352708 C17.5094463,6.19352708 6.26545172,17.3078527 6.26545172,30.9676354 C6.26545172,42.0895584 13.7202331,51.5208963 23.9506742,54.6424339 L15.0973693,61.9352708 L0,61.9352708 L0,65.0320343 L16.2315601,65.0320343 L25.4280629,57.4557817 L35.1164717,60.1918342 L38.412108,64.2640369 C38.8492092,64.8027912 39.0403575,65.4763166 38.9541403,66.1623943 C38.8649155,66.8468203 38.5106897,67.4522995 37.9516145,67.8655316 C36.9397319,68.615031 35.5017758,68.5126314 34.6071887,67.6316641 L31.4445541,64.5071535 L22.5173965,71.5661228 L24.4753293,73.9847364 L28.1957024,71.0428936 L28.1957024,83.6126155 L17.6003419,83.6126155 L14.467449,82.0640686 L0,82.0640686 L0,85.1608321 L13.7282534,85.1608321 L16.8611463,86.7093791 L28.1960365,86.7093791 L28.1960365,88.257926 C28.1960365,92.52667 31.7095551,96 36.028436,96 C40.3473169,96 43.8608354,92.5270003 43.8608354,88.257926 L43.8608354,86.7093791 C46.4516961,86.7093791 48.5603419,84.6253811 48.5603419,82.0640686 C48.5603419,80.8702869 48.0888207,79.7911267 47.3385972,78.9673051 C48.0904915,78.1434834 48.5603419,77.0643232 48.5603419,75.8705415 C48.5603419,74.6767598 48.0888207,73.5975997 47.3385972,72.773778 C48.0904915,71.9499563 48.5603419,70.8707961 48.5603419,69.6770144 C48.5603419,68.4832327 48.0888207,67.4040726 47.3385972,66.5802509 C48.0904915,65.7564292 48.5603419,64.6772691 48.5603419,63.4834874 C48.5603419,60.9225052 46.4520303,58.8381769 43.8608354,58.8381769 L43.8608354,55.7414134 L46.8403419,55.7414134 C50.9303128,55.7414134 54.9718282,56.3885131 58.8519371,57.6675177 L70.6426423,61.5524282 C71.0860929,61.7938932 71.5559433,61.9349404 72.0572061,61.9349404 C76.9147775,61.9349404 78.6691976,50.1348675 79.3535885,42.0135845 L81.455885,41.7982149 L81.455885,41.7889659 C84.5887779,41.6138955 86,36.2719371 86,30.9673051 C86,25.662673 84.5881096,20.3210449 81.4552166,20.1459746 Z M67.6671459,40.0643576 C67.4729901,37.303531 67.3570313,34.2701892 67.3570313,30.9676354 C67.3570313,27.6650816 67.4729901,24.6317398 67.6671459,21.8709131 L78.1482184,22.9068012 C77.2021683,24.9907992 76.7557101,27.9838418 76.7557101,30.9676354 C76.7557101,33.951429 77.2021683,36.9444716 78.1482184,39.0284696 L67.6671459,40.0643576 Z M76.2591257,19.6072203 L67.9318127,18.7833986 C68.8230581,9.826072 70.5587643,4.41276417 71.7210258,3.2903319 L72.1220361,3.15886397 C73.1185467,3.78746568 75.2582708,8.48529725 76.2591257,19.6072203 Z M39.8313503,70.3429425 C40.6193355,69.7592645 41.2004663,68.9912671 41.5874412,68.1287978 L43.8605013,68.1287978 C44.7250126,68.1287978 45.4271148,68.8241245 45.4271148,69.6773448 C45.4271148,70.5305651 44.7253468,71.2258917 43.8605013,71.2258917 L38.0411735,71.2258917 C38.6720964,71.041242 39.2799611,70.7502288 39.8313503,70.3429425 Z M45.4267806,75.8708718 C45.4267806,76.7240921 44.7250126,77.4194188 43.8601671,77.4194188 L37.5943812,77.4194188 C36.7295357,77.4194188 36.0277676,76.7240921 36.0277676,75.8708718 C36.0277676,75.0176516 36.7295357,74.3223249 37.5943812,74.3223249 L43.8601671,74.3223249 C44.7250126,74.3223249 45.4267806,75.0176516 45.4267806,75.8708718 Z M40.7276083,88.257926 C40.7276083,90.8189081 38.6192967,92.9032365 36.0281018,92.9032365 C33.4369069,92.9032365 31.3285953,90.8192385 31.3285953,88.257926 L31.3285953,68.7699518 L32.3922751,69.8197133 C32.5677171,69.9947837 32.7635438,70.1371522 32.9576996,70.2841453 C33.0860229,71.236462 33.4963901,72.0943068 34.1182903,72.7741083 C33.366396,73.59793 32.8965456,74.6770901 32.8965456,75.8708718 C32.8965456,77.0646535 33.3680668,78.1438137 34.1182903,78.9676354 C33.366396,79.7914571 32.8965456,80.8706172 32.8965456,82.0643989 C32.8965456,84.6253811 35.0048572,86.7097094 37.5960521,86.7097094 L40.728945,86.7097094 L40.728945,88.257926 L40.7276083,88.257926 Z M43.8605013,83.6126155 L37.5947154,83.6126155 C36.7298698,83.6126155 36.0281018,82.9172889 36.0281018,82.0640686 C36.0281018,81.2108483 36.7298698,80.5155217 37.5947154,80.5155217 L43.8605013,80.5155217 C44.7250126,80.5155217 45.4271148,81.2108483 45.4271148,82.0640686 C45.4271148,82.9172889 44.7250126,83.6126155 43.8605013,83.6126155 Z M45.4267806,63.4838177 C45.4267806,64.337038 44.7250126,65.0323646 43.8601671,65.0323646 L42.0228716,65.0323646 C41.8801787,64.0552738 41.501224,63.1231067 40.8589392,62.3290139 L40.5408044,61.935601 L43.8601671,61.9356011 C44.7250126,61.9352708 45.4267806,62.6305974 45.4267806,63.4838177 Z M40.7276083,58.8385072 L38.0348242,58.8385072 L36.9397319,57.4851803 L30.6458753,55.7077206 C30.8744511,55.7139967 31.0986827,55.7417437 31.3289295,55.7417437 L40.7276083,55.7417437 L40.7276083,58.8385072 Z M46.8396736,52.6449801 L31.3289295,52.6449801 C19.2361298,52.6449801 9.39867884,42.9209775 9.39867884,30.9676354 C9.39867884,19.0142933 19.2357956,9.29029061 31.3289295,9.29029061 L46.8413445,9.29029061 C51.268164,9.29029061 55.6415154,8.58901819 59.8427667,7.20464102 L67.587278,4.65290786 C65.0231514,11.131172 64.2241383,22.9718745 64.2241383,30.9676354 C64.2241383,38.9633963 65.0231514,50.8040987 67.587278,57.2823629 L59.8427667,54.7306297 C55.6415154,53.3462526 51.268164,52.6449801 46.8396736,52.6449801 Z M72.1818535,58.7965564 L71.8874451,58.6991116 C70.6623587,57.7547226 68.8501263,52.3166406 67.9338178,43.1502206 L76.2594599,42.3263989 C75.2472431,53.5754957 73.0761065,58.2531776 72.1818535,58.7965564 Z M81.4552166,38.5686621 C80.8757568,37.840964 79.8886031,35.2459587 79.8886031,30.9676354 C79.8886031,26.689312 80.8754226,24.0943068 81.4552166,23.3666086 C82.0346765,24.0943068 83.0218302,26.689312 83.0218302,30.9676354 C83.0218302,35.2459587 82.0346765,37.840964 81.4552166,38.5686621 Z" id="Shape" fill="#333333"></path>
            <rect id="Rectangle-path" fill="#333333" x="90" y="29" width="4" height="3"></rect>
            <rect id="Rectangle-path" fill="#333333" transform="translate(90.500000, 12.500000) rotate(-18.445820) translate(-90.500000, -12.500000) " x="88" y="11" width="5" height="3"></rect>
            <rect id="Rectangle-path" fill="#333333" transform="translate(90.500000, 47.500000) rotate(-71.566863) translate(-90.500000, -47.500000) " x="89" y="45" width="3" height="5"></rect>
            <rect id="Rectangle-path" fill="#FFD54B" x="40" y="6" width="6" height="50"></rect>
        </g>
    </g>
</svg>