<?xml version="1.0" encoding="UTF-8"?>
<svg width="76px" height="76px" viewBox="0 0 76 76" version="1.1" xmlns="http://www.w3.org/2000/svg" xmlns:xlink="http://www.w3.org/1999/xlink">
    <title>icon_m_03</title>
    <defs></defs>
    <g id="Page-1" stroke="none" stroke-width="1" fill="none" fill-rule="evenodd">
        <g id="cube">
            <rect id="Rectangle-Copy-2" x="0" y="0" width="76" height="76"></rect>
            <polygon id="Shape" fill="#FFFFFF" fill-rule="nonzero" points="37.9999258 18 28 24.0494642 37.9999258 30 48 24.0494642"></polygon>
            <g id="Group" transform="translate(28.000000, 25.000000)" fill="#D3D7DA" fill-rule="nonzero">
                <polygon id="Shape" points="10.4718971 5.60841525 10.4718971 16.9242203 20.8733824 11.3083136 20.8733824 0.00172881356"></polygon>
                <polygon id="Shape" points="0.0705661765 0.00172881356 0.0705661765 11.3083136 10.4718971 16.9242203 10.4718971 5.60841525"></polygon>
            </g>
            <path d="M48.9032596,23.2637889 C48.9032596,23.2637889 48.6229067,22.986532 48.5358852,22.9004714 L38.4639653,17.1361886 C38.1836124,16.9546038 37.8163876,16.9546038 37.5360347,17.1361886 L27.4639653,22.9004714 C27.3673744,22.9004714 27.1836124,23.1777284 27.0965909,23.2637889 C27.0965909,23.2637889 27,23.6271064 27,23.7226307 L27,35.3276453 C27,35.6909628 27.1836124,35.9680718 27.4639653,36.1498045 L37.5360347,41.9044757 C37.5360347,41.9044757 37.9034091,42 38,42 C38.0965909,42 38.3673744,41.9044757 38.4639653,41.9044757 L48.5360347,36.1498045 C48.8163876,35.9682197 49,35.6909628 49,35.3276453 L49,23.7226307 C49,23.6269585 48.9032596,23.2637889 48.9032596,23.2637889 Z M37.0720694,39.5336701 L28.8462919,34.7827429 L28.8462919,25.2807408 L37.0720694,30.0316679 L37.0720694,39.5336701 Z M38,28.4735578 L29.6774821,23.7226307 L37.9032596,18.9717035 L46.1290371,23.7226307 L38,28.4735578 Z M47.1537081,34.7827429 L38.9279306,39.5336701 L38.9279306,30.0316679 L47.1537081,25.2807408 L47.1537081,34.7827429 Z" id="Shape" fill="#193651" fill-rule="nonzero"></path>
            <g id="Group" transform="translate(10.000000, 21.000000)" fill="#FFFFFF" fill-rule="nonzero">
                <path d="M56.7816234,2.60923552 C56.7816234,1.25297297 55.6810052,0.0673436293 54.3122649,0.0673436293 C52.9436727,0.0673436293 51.8429065,1.06326641 51.6610987,2.42906564 L49.6511455,15.2429884 C49.4980597,14.4178456 48.9812104,13.6779459 48.1771403,13.3080695 C46.8085481,12.6726332 45.1527351,13.2132896 44.4253558,14.5790888 L40.9511688,21.4744015 C40.769361,21.7494981 40.5874052,22.1098378 40.3099558,22.2901544 L35.7350026,25.5528726 C35.4574052,25.8279691 35.1894312,26.093529 35.0076234,26.4634054 L32.1746494,32.1732355 L43.7077481,37.8830656 L44.9903221,35.3411737 L55.6046104,24.7277297 C56.5234208,23.8171969 56.9732026,22.6411042 56.9732026,21.4650116 L56.7816234,2.60923552 Z" id="Shape"></path>
                <path d="M21.2731403,25.5528726 L16.698187,22.2901544 C16.4205896,22.1099846 16.2387818,21.7494981 16.056974,21.4744015 L12.582639,14.5789421 C11.8552597,13.2226795 10.1994468,12.6724865 8.83085455,13.3079228 C8.04603117,13.6684093 7.52918182,14.3986255 7.36647273,15.2048417 L5.43306234,2.41952896 C5.25125455,1.06326641 4.15048831,0.0578069498 2.7818961,0.0578069498 C1.4133039,0.0578069498 0.312537662,1.24328958 0.312537662,2.60923552 L0.13072987,21.4744015 C0.13072987,22.6504942 0.590135065,23.8361236 1.49932208,24.7371197 L12.0274442,35.3505637 L13.3100182,37.8924556 L24.8431169,32.0876988 L22.0101429,26.4632587 C21.8187117,26.093529 21.5411143,25.8279691 21.2731403,25.5528726 Z" id="Shape"></path>
            </g>
            <polygon id="Shape" fill="#2EA2DB" fill-rule="nonzero" points="39.415954 51 37.5 54.8005121 35.584046 51 21 58.416855 24.2791212 65 50.7210262 65 54 58.416855"></polygon>
            <g id="Group" transform="translate(9.000000, 9.000000)" fill="#193651" fill-rule="nonzero">
                <path d="M57.289149,37.3812944 C58.3004924,36.3820457 58.9457677,34.9260102 58.9457677,33.4699746 L58.7628081,14.4465635 C58.7628081,12.5337411 57.1929015,10.9920305 55.2664621,10.9920305 C53.513447,10.9920305 51.9532247,12.3528223 51.6738687,14.0848731 L50.1039621,24.638665 C49.9210025,24.5435685 46.9736843,22.4498274 44.6716414,25.9994569 L41.1752955,32.9179442 C41.079048,33.0987157 40.8959394,33.2796345 40.8092273,33.4604061 L36.2920025,36.7340203 L36.1957551,36.8291168 C35.8296869,37.1908071 35.5504798,37.5619188 35.2711237,38.0091371 L32.7861212,42.8340305 L30.9465429,41.9204569 L29.4728838,45.022868 L27.9992247,42.0157005 L26.1596465,42.9292741 L23.6746439,38.1043807 C23.4916843,37.6475939 23.1256162,37.2859036 22.7500126,36.9243604 L18.1460758,33.5555025 C17.9631162,33.374731 17.8667197,33.1938122 17.7800076,33.0130406 L14.2836616,26.0945533 C12.1647273,22.7256954 8.93805303,24.4577462 8.85134091,24.7337614 L7.18518687,14.1705482 C6.90583081,12.4384975 5.43217172,11.0777056 3.59259343,11.0777056 C1.65661869,11.0777056 0.182959596,12.6288376 0.182959596,14.5322386 L0,33.3748782 C0,34.8309137 0.549027778,36.2869492 1.65661869,37.286198 L12.2514394,47.8399898 L13.0798232,49.3911218 L11.7025606,50.1239239 L15.6612222,57.8608883 L43.5641995,57.8608883 L47.5228611,50.1239239 L46.1455985,49.3911218 L46.9739823,47.8399898 L57.289149,37.3812944 Z M2.94731818,36.1060305 C2.21533081,35.382797 1.83972727,34.3739797 1.83972727,33.4699746 L2.02268687,14.5416599 C2.02268687,13.6280863 2.76435859,12.9048528 3.67930556,12.9048528 C4.50768939,12.9048528 5.33592424,13.5424112 5.43232071,14.4559848 L7.27189899,27.1986142 C7.17565152,27.9314162 7.27189899,28.7497462 7.63796717,29.3874518 L10.4888889,35.0306751 C10.6718485,35.3066904 10.6718485,35.6682335 10.5851364,35.9442487 C10.546548,36.0584822 10.4888889,36.1727157 10.4213965,36.2678122 C10.2287525,36.5438274 10.1901641,36.8863807 10.3443687,37.1813858 L10.3732727,37.2385025 C10.6621641,37.8189442 11.4808636,37.9141878 11.8758359,37.4002843 C12.0973838,37.124269 12.2514394,36.8102741 12.3381515,36.4867107 C12.6175076,35.7539086 12.5211111,34.9355787 12.1551919,34.212198 L9.3042702,28.6640711 L9.12131061,27.2080355 C9.21755808,26.6655736 9.58362626,26.2944619 10.0459419,26.0280152 C10.9705732,25.5712284 12.0686288,26.0280152 12.5309444,26.9415888 L16.0272904,33.8600761 C16.21025,34.3168629 16.4896061,34.6785533 16.8556742,34.9544213 L21.5558586,38.3232792 C21.7388182,38.5040508 21.9219268,38.6849695 22.0181742,38.9608376 L24.5031768,43.785731 L14.6403434,48.6677411 L13.8119596,47.030934 L2.94731818,36.1060305 Z M42.273351,56.1288376 L16.6724167,56.1288376 L14.0911667,51.0374975 L27.1709899,44.4807005 L29.4730328,49.0295787 L31.7750758,44.4807005 L44.854899,50.942401 L42.273351,56.1288376 Z M45.3170657,46.755066 L44.3057222,48.6583198 L34.4525732,43.7477513 L36.9375758,38.9228579 C37.0338232,38.6468426 37.2169318,38.4660711 37.3998914,38.2852995 L41.9171162,35.0116853 L42.0133636,34.9165888 C42.3794318,34.6405736 42.6586389,34.1933553 42.8417475,33.8222437 L46.3284091,26.9133249 C46.7907247,25.9997513 47.8983157,25.6380609 48.8134116,25.9997513 C49.2757273,26.2757665 49.6417955,26.6373096 49.7380429,27.1797716 L49.5550833,28.6358071 L46.7041616,34.183934 C46.1743535,35.2211624 46.3091894,36.4393096 46.964149,37.3243249 C47.3591212,37.8667868 48.1970404,37.8001015 48.4956162,37.2006701 L48.5148359,37.1531218 C48.6688914,36.8485482 48.6207677,36.4870051 48.4185884,36.2109898 C48.1681364,35.8684365 48.1007929,35.3925127 48.3607803,35.0024112 L51.211702,29.3591878 C51.5777702,28.6359543 51.6740177,27.9031523 51.5777702,27.1799188 L53.4173485,14.3517614 C53.513596,13.4381878 54.2457323,12.8006294 55.1703636,12.8006294 C56.0949949,12.8006294 56.7402702,13.5334315 56.8269823,14.4374365 L57.1063384,33.4608477 C57.1063384,34.4600964 56.7402702,35.3736701 55.9987475,36.0969036 L45.3170657,46.755066 Z" id="Shape"></path>
                <rect id="Rectangle-path" x="21.2763535" y="51.5703909" width="1.83957828" height="1.81757868"></rect>
                <rect id="Rectangle-path" x="28.5482525" y="51.5703909" width="1.83957828" height="1.81757868"></rect>
                <rect id="Rectangle-path" x="35.8298359" y="51.5703909" width="1.83957828" height="1.81757868"></rect>
                <rect id="Rectangle-path" x="28.5482525" y="0.61915736" width="1.83957828" height="5.36735533"></rect>
                <rect id="Rectangle-path" transform="translate(17.629688, 3.373775) rotate(48.798983) translate(-17.629688, -3.373775) " x="14.0371097" y="2.46498963" width="7.18515615" height="1.81757091"></rect>
                <rect id="Rectangle-path" transform="translate(41.315224, 3.353878) rotate(131.217188) translate(-41.315224, -3.353878) " x="37.7227872" y="2.44511003" width="7.1848728" height="1.81753692"></rect>
            </g>
        </g>
    </g>
</svg>