<?xml version="1.0" encoding="UTF-8"?>
<svg width="76px" height="76px" viewBox="0 0 76 76" version="1.1" xmlns="http://www.w3.org/2000/svg" xmlns:xlink="http://www.w3.org/1999/xlink">
    <title>icon_m_01</title>
    <defs></defs>
    <g id="Page-1" stroke="none" stroke-width="1" fill="none" fill-rule="evenodd">
        <g id="networking">
            <rect id="Rectangle" x="0" y="0" width="76" height="76"></rect>
            <circle id="Oval" fill="#E1E6E9" fill-rule="nonzero" cx="38.5" cy="38.5" r="28.5"></circle>
            <circle id="Oval" fill="#FFFFFF" fill-rule="nonzero" cx="19" cy="14" r="4"></circle>
            <path d="M18.9985634,19 C16.2711388,19 14,16.7259213 14,13.9952902 C14,11.2646591 16.2711388,9 18.9985634,9 C21.7259879,9 23.9971268,11.2740787 23.9971268,14.0047098 C24.0920883,16.7259213 21.8209495,19 18.9985634,19 Z M18.9985634,10.7221535 C17.2689699,10.7221535 15.8150001,12.1779112 15.8150001,13.9096315 C15.8150001,15.6413517 17.2785249,17.182621 18.9985634,17.182621 C20.7186019,17.182621 22.1821267,15.7268633 22.1821267,13.9951431 C22.1821267,12.2634228 20.8231184,10.7221535 18.9985634,10.7221535 Z" id="Shape" fill="#193651" fill-rule="nonzero"></path>
            <path d="M23.2724827,21 C22.2735306,21.4598295 21.1795102,21.6418052 19.9998402,21.6418052 C18.8201702,21.6418052 17.7261499,21.3639514 16.7271978,21 C13.5400579,21 11,23.5673689 11,26.7670588 L11,33.6359004 C11,33.8178761 11.1807179,34 11.361583,34 L28.6383918,34 C28.8191097,34 28.9999748,33.8180243 28.9999748,33.6359004 L28.9999748,26.7670588 C29.0092462,23.5673689 26.4596225,21 23.2724827,21 Z" id="Shape" fill="#F16051" fill-rule="nonzero"></path>
            <path d="M27.7203769,36 L10.3657585,36 C9.54429407,36 9,35.3549876 9,34.6232985 L9,27.7201322 C9,24.0326453 12.0181431,21 15.6667159,21 L15.8481472,21 L16.0295786,21.0962083 C17.9493824,21.9242546 20.0506175,21.9242546 21.9704213,21.0962083 L22.1518526,21 L22.333284,21 C26.0773003,21 28.9999999,24.0423257 28.9999999,27.7201322 L28.9999999,34.6232985 C29.0002954,35.3645191 28.4558536,36 27.7203769,36 Z M10.8242125,34.1610223 L27.1759351,34.1610223 L27.1759351,27.7201322 C27.1759351,25.0532571 25.0747,22.935186 22.5150109,22.8388288 C20.3277879,23.7630834 17.7680988,23.7630834 15.5712723,22.8388288 C12.9255954,22.9350371 10.8243603,25.0435767 10.8243603,27.7201322 C10.8242125,27.7201322 10.8242125,34.1610223 10.8242125,34.1610223 Z" id="Shape" fill="#193651" fill-rule="nonzero"></path>
            <circle id="Oval" fill="#FFFFFF" fill-rule="nonzero" cx="57" cy="22" r="4"></circle>
            <path d="M58,26 C55.2717916,26 53,23.749472 53,21.0471197 C53,18.3447673 55.2719386,16 58,16 C60.7282084,16 63,18.250528 63,20.9528803 C63,23.6552327 60.8231973,26 58,26 Z M58,17.798558 C56.2699094,17.798558 54.8155217,19.2392397 54.8155217,20.953026 C54.8155217,22.6668123 56.2699094,24.107494 58,24.107494 C59.7300906,24.107494 61.1844783,22.6668123 61.1844783,20.953026 C61.1844783,19.2392397 59.8156687,17.798558 58,17.798558 Z" id="Shape" fill="#193651" fill-rule="nonzero"></path>
            <path d="M61.2659814,29 C60.2675584,29.4598295 59.1741177,29.6418052 57.9950726,29.6418052 C56.8160275,29.6418052 55.7224397,29.3639514 54.7241639,29 C51.5387123,29 49,31.5673689 49,34.7670588 L49,41.6359004 C49,41.8178761 49.1806222,42 49.3613914,42 L66.6386086,42 C66.8192307,42 67,41.8180243 67,41.6359004 L67,34.7670588 C66.9901452,31.5577366 64.4514329,29 61.2659814,29 Z" id="Shape" fill="#FDBF5E" fill-rule="nonzero"></path>
            <path d="M66.634537,43 L49.2799184,43 C48.5540453,43 48,42.4480117 48,41.7023408 L48,34.7591224 C48,31.0502407 51.0181431,28 54.6667159,28 L54.8481473,28 L55.0295786,28.0967665 C56.9493824,28.9296171 59.0506176,28.9296171 60.9704214,28.0967665 L61.1518527,28 L61.3332841,28 C65.0773004,28 68,31.0599772 68,34.7591224 L68,41.7023408 C67.9143077,42.3512453 67.3700136,43 66.634537,43 Z M49.7383724,41.1407657 L66.0900951,41.1407657 L66.0900951,34.6625057 C66.0900951,31.9801574 63.98886,29.8497973 61.343183,29.752881 C59.1463566,30.6824982 56.5962709,30.6824982 54.3994445,29.752881 C51.7537675,29.8496475 49.6525324,31.9704208 49.6525324,34.6625057 L49.6525324,41.1407657 L49.7383724,41.1407657 Z" id="Shape" fill="#193651" fill-rule="nonzero"></path>
            <circle id="Oval" fill="#FFFFFF" fill-rule="nonzero" cx="35" cy="46" r="4"></circle>
            <path d="M34.9988298,51 C32.2712599,51 30,48.7280614 30,46 C30,43.2719386 32.2714069,41 34.9988298,41 C37.7262527,41 39.9976596,43.2719386 39.9976596,46 C40.0832177,48.7282084 37.8119578,51 34.9988298,51 Z M34.9988298,42.7300906 C33.2691441,42.7300906 31.8150968,44.1844783 31.8150968,45.9145689 C31.8150968,47.6446595 33.2691441,49.0990472 34.9988298,49.0990472 C36.7285154,49.0990472 38.1825628,47.6446595 38.1825628,45.9145689 C38.1825628,44.1844783 36.8140736,42.7300906 34.9988298,42.7300906 Z" id="Shape" fill="#193651" fill-rule="nonzero"></path>
            <path d="M38.2659814,54 C37.2675584,54.4598295 36.1741177,54.6418052 34.9950726,54.6418052 C33.8160275,54.6418052 32.7224397,54.3639514 31.7241639,54 C28.5387123,54 26,56.5673689 26,59.7670588 L26,66.6359004 C26,66.8178761 26.1806222,67 26.3613914,67 L43.6386086,67 C43.8192307,67 44,66.8180243 44,66.6359004 L44,59.7670588 C43.9997058,56.567517 41.356415,54 38.2659814,54 Z" id="Shape" fill="#4FBF9F" fill-rule="nonzero"></path>
            <g id="Group" transform="translate(12.000000, 15.000000)" fill="#193651" fill-rule="nonzero">
                <path d="M31.6320242,52.9415376 L13.8981873,52.9415376 C13.1560423,52.9415376 12.589577,52.3975125 12.589577,51.6625989 L12.589577,44.7241755 C12.589577,41.0687994 15.6753776,38.0625627 19.4057402,38.0625627 L19.5912387,38.0625627 L19.7767372,38.1579331 C21.739577,38.9787688 23.8879154,38.9787688 25.8507553,38.1579331 L26.0362538,38.0625627 L26.2217523,38.0625627 C30.0496979,38.0625627 33.0379154,41.0783955 33.0379154,44.7241755 L33.0379154,51.5672284 C32.9406344,52.3975125 32.2862538,52.9415376 31.6320242,52.9415376 Z M14.3570997,51.1187214 L31.0753776,51.1187214 L31.0753776,44.7337716 C31.0753776,42.0901198 28.9270393,39.990493 26.2220544,39.8949749 C23.9759819,40.8111811 21.3687311,40.8111811 19.1226586,39.8949749 C16.4176737,39.9903454 14.2693353,42.0901198 14.2693353,44.7337716 L14.2693353,51.1187214 L14.3570997,51.1187214 Z" id="Shape"></path>
                <path d="M41.7196375,42.6245487 C44.6101208,39.6087159 46.5729607,35.8674178 47.3249245,31.8590529 L45.4598187,31.4963203 C44.7176737,35.3329889 42.8427492,38.8928468 40.0400302,41.6224206 L39.7567976,38.3393733 L37.8916918,38.5206657 L38.6338369,44.7241755 L44.9812689,43.9988579 L44.7957704,42.1760418 L41.7196375,42.6245487 Z" id="Shape"></path>
                <path d="M33.223716,0.0110724234 L31.7296073,1.10857103 L33.594713,3.48500836 C29.4835347,2.56880223 25.1867069,2.75009471 21.2708459,4.1244039 L21.9250755,5.86144568 C25.6652568,4.58250696 29.7666163,4.40121448 33.594713,5.40334262 L30.8897281,7.40759889 L32.0126888,8.86783008 L37.1492447,5.12667967 L33.223716,0.0110724234 Z" id="Shape"></path>
                <path d="M4.65045317,29.119883 L7.73625378,30.3988217 L8.48821752,28.7572981 L2.60951662,26.2949387 L0.0705438066,32.0403454 L1.75015106,32.765663 L2.97084592,30.0360891 C4.18172205,33.9586797 6.51570997,37.5185376 9.68942598,40.1621894 L10.9003021,38.7974763 C7.92175227,36.2397465 5.7734139,32.8611811 4.65045317,29.119883 Z" id="Shape"></path>
                <rect id="Rectangle-path" x="18.839426" y="44.6384011" width="1.86510574" height="1.82281616"></rect>
                <rect id="Rectangle-path" x="24.7279456" y="44.6384011" width="1.86510574" height="1.82281616"></rect>
                <rect id="Rectangle-path" x="42.1883686" y="19.9959109" width="1.86510574" height="1.82281616"></rect>
                <rect id="Rectangle-path" x="48.0768882" y="19.9959109" width="1.86510574" height="1.82281616"></rect>
                <rect id="Rectangle-path" x="2.87311178" y="12.3321699" width="1.86510574" height="1.82281616"></rect>
                <rect id="Rectangle-path" x="8.76163142" y="12.3321699" width="1.86510574" height="1.82281616"></rect>
            </g>
        </g>
    </g>
</svg>