<?xml version="1.0" encoding="UTF-8"?>
<svg width="76px" height="76px" viewBox="0 0 76 76" version="1.1" xmlns="http://www.w3.org/2000/svg" xmlns:xlink="http://www.w3.org/1999/xlink">
    <title>icon_m_02</title>
    <defs></defs>
    <g id="Page-1" stroke="none" stroke-width="1" fill="none" fill-rule="evenodd">
        <g id="startup">
            <rect id="Rectangle-Copy" x="0" y="0" width="76" height="76"></rect>
            <path d="M69,9 C54.683788,9 41.651136,14.4692451 31.9010511,23.4119157 C25.9040304,23.3433553 19.8777552,25.5840553 15.3114765,30.1433992 C13.5280131,31.924154 12.1268287,33.8907636 11,36.0333904 C14.7921713,34.0961422 19.0252821,33.2840114 23.1898798,33.5971494 C21.8278025,35.6615295 20.602903,37.8141453 19.5250338,40.0546939 L37.8882193,58.3899912 C40.1420283,57.3137591 42.2977666,56.0808822 44.3652866,54.7210248 C44.6984544,58.8988216 43.9047935,63.154865 42.0037058,67 C44.1594441,65.9726531 46.1290449,64.4756748 47.9026557,62.6950713 C52.517894,58.0868422 54.7717031,51.991321 54.6443778,45.9349989 C63.5518422,36.2193965 69,23.2457362 69,9 Z" id="Shape" fill="#FFFFFF" fill-rule="nonzero"></path>
            <path d="M52,11.4527941 L65.5472059,25 C67.0967647,19.9138235 68,14.5425 68,9 C62.4480882,9 57.0861765,9.91264706 52,11.4527941 Z" id="Shape" fill="#F16051" fill-rule="nonzero"></path>
            <circle id="Oval" fill="#2EA2DB" fill-rule="nonzero" cx="49.5" cy="27.5" r="5.5"></circle>
            <path d="M21.9443799,42 C18.2348777,47.7432863 15,62 15,62 C15,62 29.2663021,58.7553841 35,55.0556201 L21.9443799,42 Z" id="Shape" fill="#FDBF5E" fill-rule="nonzero"></path>
            <g id="Group" transform="translate(8.000000, 8.000000)" fill="#193651" fill-rule="nonzero">
                <path d="M60.8597302,0.0292920792 L59.9226856,0.0292920792 C46.0133267,0.0292920792 32.7579059,5.34897525 22.6846015,14.4071733 L22.5870619,14.4071733 C16.2424579,14.4071733 10.171146,16.9255371 5.69081683,21.4058663 C3.91426733,23.1824158 2.42082426,25.2321064 1.30817822,27.4771782 L0,29.9955421 L2.51836386,28.6875149 C5.6027896,27.0965322 9.05819802,26.2570272 12.5136064,26.2570272 C12.611146,26.2570272 12.611146,26.2570272 12.6990223,26.2570272 C11.6741015,27.9358861 10.6491807,29.7124356 9.80982673,31.4791708 L9.5267203,32.0355693 L12.0450842,34.5539332 C8.31638366,40.8985371 5.41737376,53.9685421 5.23195792,54.5249406 L4.94885149,55.9206931 L6.34460396,55.6375866 C6.90100248,55.540047 19.9708564,52.5531609 26.1300446,48.8244604 L28.6484084,51.3428243 L29.2048069,51.0597178 C30.9813564,50.2202129 32.7480916,49.1954431 34.4269505,48.1705223 C34.4269505,51.6259307 33.6851361,55.0813391 31.9964629,58.3415173 L30.6884356,60.8598812 L33.2067995,59.551854 C35.4518713,58.4293936 37.5015619,56.9359505 39.2781114,55.1692153 C43.7584406,50.6888861 46.2768045,44.6175743 46.2768045,38.2729703 L46.2768045,38.1754307 C55.3350025,28.0923119 60.6546856,14.8368911 60.6546856,0.937346535 L60.6546856,0 L60.8597302,0 L60.8597302,0.0292920792 Z M12.5136064,24.4804777 C9.71213614,24.4804777 7.00835644,24.949 4.39245297,25.8762302 C5.14408168,24.7537698 6.07131188,23.6311584 7.00835644,22.7039282 C10.7468713,18.9654134 15.5003416,16.8278465 20.6346089,16.3593243 C18.116245,18.8776881 15.8713243,21.5912822 13.8214827,24.568354 C13.450651,24.4804777 12.9821287,24.4804777 12.5136064,24.4804777 Z M7.47687871,53.4121436 C8.31638366,49.8688589 10.7468713,40.9083515 13.450651,36.0473762 L24.8319827,47.5360619 C19.9806708,50.2396906 10.9224728,52.5726386 7.47687871,53.4121436 Z M38.1849431,53.8806658 C37.1600223,54.9055866 36.1351015,55.7449406 35.0126411,56.4965693 C36.1351015,53.4121436 36.6036238,50.1519653 36.4083936,46.9796634 C39.3952797,44.9298218 42.0990594,42.684901 44.6174233,40.1665371 C44.1587153,45.3885297 41.9136436,50.1519653 38.1849431,53.8806658 Z M29.126745,49.1270446 L11.7717921,31.7622772 C20.6347599,13.8411114 39.024448,2.2645495 59.0051188,1.89356683 C58.6244728,21.8645743 47.0479109,40.2542624 29.126745,49.1270446 Z" id="Shape"></path>
                <rect id="Rectangle-path" transform="translate(21.589711, 33.362292) rotate(45.000000) translate(-21.589711, -33.362292) " x="20.6575822" y="32.4301632" width="1.86425687" height="1.86425687"></rect>
                <rect id="Rectangle-path" transform="translate(24.562126, 36.354763) rotate(45.000000) translate(-24.562126, -36.354763) " x="23.6299979" y="35.4226348" width="1.86425687" height="1.86425687"></rect>
                <rect id="Rectangle-path" transform="translate(27.534542, 39.347036) rotate(45.000000) translate(-27.534542, -39.347036) " x="26.6024135" y="38.4149081" width="1.86425687" height="1.86425687"></rect>
            </g>
        </g>
    </g>
</svg>