<?xml version="1.0" encoding="UTF-8"?>
<svg width="76px" height="76px" viewBox="0 0 76 76" version="1.1" xmlns="http://www.w3.org/2000/svg" xmlns:xlink="http://www.w3.org/1999/xlink">
    <title>icon_m_04</title>
    <defs></defs>
    <g id="Page-1" stroke="none" stroke-width="1" fill="none" fill-rule="evenodd">
        <g id="user">
            <rect id="Rectangle" x="0" y="0" width="76" height="76"></rect>
            <path d="M51.9170621,46 L50.1423042,46 L50.1423042,28.4745957 L59.9169834,14.6225111 C60.4466225,13.81862 60.1864741,12.5662271 59.3873444,12.0334324 C58.9413552,11.762336 58.4953661,11.6781877 57.965727,11.762336 C57.436088,11.8557377 57.0737487,12.1175807 56.8136004,12.5662271 L46.6857805,26.8669581 L30.323455,26.8669581 L20.1957789,12.6597734 C19.9262882,12.211127 19.480299,11.9400306 18.9506599,11.8558823 C18.5046708,11.6783323 18.0586817,11.7624806 17.6220349,12.0334324 C16.7300566,12.5662271 16.5535581,13.81862 17.0923958,14.6225111 L26.8577327,28.3904474 L26.8577327,45.9064537 L25.0831185,45.9064537 L25.0831185,29.0167885 L15.5777862,15.6974986 C14.5093095,13.9963147 14.9552986,11.6783323 16.6464067,10.6033448 C17.4455364,10.0705501 18.4210209,9.88360202 19.3966491,10.0705501 C20.3722773,10.2481001 21.1712633,10.8744412 21.7102447,11.6781877 L31.2154333,25.0816259 L45.7846036,25.0816259 L55.2897921,11.6781877 C55.8194312,10.8742966 56.6184172,10.3416464 57.6033878,10.1546984 C58.579016,9.97714834 59.5546442,10.1546984 60.3536302,10.6874931 C62.0447383,11.762336 62.4907274,14.080463 61.4221069,15.7815023 L51.9169184,29.1943385 L51.9169184,46 L51.9170621,46 Z" id="Shape" fill="#193651" fill-rule="nonzero"></path>
            <circle id="Oval" fill="#D3D7DA" fill-rule="nonzero" cx="39.5" cy="18.5" r="5.5"></circle>
            <g id="Group" transform="translate(33.000000, 11.000000)" fill="#193651" fill-rule="nonzero">
                <path d="M6.47311364,12.5224038 C2.91096591,12.5224038 0.0842045455,9.66923077 0.0842045455,6.28471154 C0.0842045455,2.806875 3.00654545,0.0470192308 6.47311364,0.0470192308 C9.93968182,0.0470192308 12.8620227,2.90019231 12.8620227,6.28471154 C12.8621705,9.76240385 10.0352614,12.5224038 6.47311364,12.5224038 Z M6.47311364,1.82769231 C3.91373864,1.82769231 1.90819318,3.87894231 1.90819318,6.28456731 C1.90819318,8.69019231 4.00917045,10.7414423 6.47311364,10.7414423 C9.03248864,10.7414423 11.0380341,8.69019231 11.0380341,6.28456731 C11.0380341,3.87894231 9.03248864,1.82769231 6.47311364,1.82769231 Z" id="Shape"></path>
                <rect id="Rectangle-path" x="5.55631818" y="19.4780769" width="1.82398864" height="1.78081731"></rect>
                <rect id="Rectangle-path" x="5.55631818" y="23.8510096" width="1.82398864" height="1.78081731"></rect>
                <rect id="Rectangle-path" x="5.55631818" y="28.1213942" width="1.82398864" height="1.78081731"></rect>
            </g>
            <path d="M25,66 L25,62.5187188 C25,58.3949427 21.8392755,55 18,55 C14.1607245,55 11,58.3949427 11,62.5187188 L11,66 L25,66 Z" id="Shape" fill="#FDBF5E" fill-rule="nonzero"></path>
            <path d="M25.9090158,67 L10,67 L10,62.5436681 C10,57.9029135 13.5635712,54 18,54 C22.3454446,54 26,57.8057462 26,62.5436681 L26,67 L25.9090158,67 Z M11.7362935,65.1457106 L24.1635817,65.1457106 L24.1635817,62.5438183 C24.1635817,58.9224949 21.3817434,55.8545898 17.9090158,55.8545898 C14.5181318,55.8545898 11.6544499,58.8254777 11.6544499,62.5438183 L11.6544499,65.1457106 L11.7362935,65.1457106 Z" id="Shape" fill="#193651" fill-rule="nonzero"></path>
            <path d="M45,66 L45,62.5187188 C45,58.3949427 41.8392755,55 38,55 C34.1607245,55 31,58.3949427 31,62.5187188 L31,66 L45,66 Z" id="Shape" fill="#F16051" fill-rule="nonzero"></path>
            <path d="M46,67 L30,67 L30,62.5436681 C30,57.9029135 33.5635712,54 38,54 C42.3454446,54 46,57.8057462 46,62.5436681 L46,67 Z M31.7364341,65.1457106 L44.1637223,65.1457106 L44.1637223,62.5438183 C44.1637223,58.9224949 41.381884,55.8545898 37.9001564,55.8545898 C34.5092724,55.8545898 31.6365906,58.8254777 31.6365906,62.5438183 L31.6365906,65.1457106 L31.7364341,65.1457106 Z" id="Shape" fill="#193651" fill-rule="nonzero"></path>
            <path d="M66,66 L66,62.5187188 C66,58.3949427 62.8392755,55 59,55 C55.1607245,55 52,58.3949427 52,62.5187188 L52,66 L66,66 Z" id="Shape" fill="#4FBF9F" fill-rule="nonzero"></path>
            <g id="Group" transform="translate(15.000000, 54.000000)" fill="#193651" fill-rule="nonzero">
                <path d="M51.8062077,12.982069 L35.7329508,12.982069 L35.7329508,8.54817241 C35.7329508,3.93078161 39.3333115,0.0475172414 43.815541,0.0475172414 C48.205847,0.0475172414 51.8981311,3.83410345 51.8981311,8.54817241 L51.8981311,12.982069 L51.8062077,12.982069 Z M37.4873115,11.1371149 L50.0428962,11.1371149 L50.0428962,8.54832184 C50.0428962,4.94522989 47.2323388,1.89277011 43.7146667,1.89277011 C40.288776,1.89277011 37.3955301,4.84870115 37.3955301,8.54832184 L37.3955301,11.1371149 L37.4873115,11.1371149 Z" id="Shape"></path>
                <rect id="Rectangle-path" x="0.077715847" y="6.97367816" width="1.75421858" height="1.84495402"></rect>
                <rect id="Rectangle-path" x="5.43243716" y="6.97367816" width="1.75421858" height="1.84495402"></rect>
                <rect id="Rectangle-path" x="20.1005574" y="6.97367816" width="1.75421858" height="1.84495402"></rect>
                <rect id="Rectangle-path" x="25.5470601" y="6.97367816" width="1.75421858" height="1.84495402"></rect>
                <rect id="Rectangle-path" x="40.2151803" y="6.97367816" width="1.75421858" height="1.84495402"></rect>
                <rect id="Rectangle-path" x="45.5697596" y="6.97367816" width="1.75421858" height="1.84495402"></rect>
            </g>
            <circle id="Oval" fill="#FFFFFF" fill-rule="nonzero" cx="18" cy="48" r="4"></circle>
            <path d="M19,53 C16.2717916,53 14,50.7280614 14,48 C14,45.2719386 16.2719386,43 19,43 C21.7280614,43 24,45.2719386 24,48 C23.9048641,50.8231973 21.7280614,53 19,53 Z M19,44.9106576 C17.2699094,44.9106576 15.8155217,46.3650453 15.8155217,48.0951359 C15.8155217,49.8252264 17.2699094,51.2796142 19,51.2796142 C20.7300906,51.2796142 22.1844783,49.8252264 22.1844783,48.0951359 C22.1749206,46.3650453 20.7205329,44.9106576 19,44.9106576 Z" id="Shape" fill="#193651" fill-rule="nonzero"></path>
            <circle id="Oval" fill="#FFFFFF" fill-rule="nonzero" cx="38" cy="48" r="4"></circle>
            <path d="M39,53 C36.2717916,53 34,50.7280614 34,48 C34,45.2719386 36.2719386,43 39,43 C41.7280614,43 44,45.2719386 44,48 C44,50.8231973 41.7282084,53 39,53 Z M39,44.9106576 C37.2699094,44.9106576 35.8155217,46.3650453 35.8155217,48.0951359 C35.8155217,49.8252264 37.2699094,51.2796142 39,51.2796142 C40.7300906,51.2796142 42.1844783,49.8252264 42.1844783,48.0951359 C42.1844783,46.3650453 40.7300906,44.9106576 39,44.9106576 Z" id="Shape" fill="#193651" fill-rule="nonzero"></path>
            <circle id="Oval" fill="#FFFFFF" fill-rule="nonzero" cx="58" cy="48" r="4"></circle>
            <path d="M59,53 C56.2717916,53 54,50.7280614 54,48 C54,45.2719386 56.2719386,43 59,43 C61.7282084,43 64,45.2719386 64,48 C64,50.8231973 61.8231973,53 59,53 Z M59,44.9106576 C57.2699094,44.9106576 55.8155217,46.3650453 55.8155217,48.0951359 C55.8155217,49.8252264 57.2699094,51.2796142 59,51.2796142 C60.7300906,51.2796142 62.1844783,49.8252264 62.1844783,48.0951359 C62.1844783,46.3650453 60.8156687,44.9106576 59,44.9106576 Z" id="Shape" fill="#193651" fill-rule="nonzero"></path>
        </g>
    </g>
</svg>