<?xml version="1.0" encoding="UTF-8"?>
<svg width="48px" height="44px" viewBox="0 0 48 44" version="1.1" xmlns="http://www.w3.org/2000/svg" xmlns:xlink="http://www.w3.org/1999/xlink">
    <title>icon-pat-04</title>
    <defs></defs>
    <g id="Page-1" stroke="none" stroke-width="1" fill="none" fill-rule="evenodd">
        <g id="money" fill-rule="nonzero">
            <ellipse id="Oval" fill="#FFFFFF" cx="16.3404255" cy="14" rx="13.2765957" ry="13"></ellipse>
            <path d="M48,34.7965188 C48,34.7673939 48,34.7382689 47.9902112,34.709144 C47.9902112,34.6800191 47.9804225,34.6508941 47.9706337,34.6217692 C47.960845,34.5926442 47.960845,34.5635193 47.9510562,34.5441027 C47.9412675,34.5149777 47.9314787,34.4955611 47.9119012,34.4664362 C47.9021124,34.4373112 47.8923237,34.4178946 47.8727461,34.3887697 C47.8629574,34.3596447 47.8433799,34.3402281 47.8238024,34.3208115 C47.8042248,34.3013948 47.7944361,34.2722699 47.7748586,34.2528533 C47.7552811,34.2334366 47.7357035,34.21402 47.7063373,34.1946034 C47.6867598,34.1751868 47.6671822,34.1557701 47.6476047,34.1363535 C47.6280272,34.1169369 47.5986609,34.1072286 47.5692947,34.0878119 C47.5497171,34.0781036 47.5301396,34.058687 47.5007734,34.0489787 L36.7037736,28.7676562 C36.6744073,28.7482395 36.645041,28.7385312 36.605886,28.7288229 C36.4198996,28.6608647 31.9660148,27.1172429 28.3245969,28.7385312 L20.2880268,31.6219003 C20.2684493,31.6316086 20.239083,31.6413169 20.2195055,31.6510253 C19.0644321,32.1752742 18.4575291,33.3499801 18.7022481,34.5829359 C18.946967,35.8061834 19.9454203,36.6702233 21.1983813,36.7284732 C21.20817,36.7284732 21.20817,36.7284732 21.2179588,36.7284732 C21.2962689,36.7284732 21.6486641,36.7090566 25.3096595,36.4760571 C26.905227,36.3789739 28.5497384,36.2721825 28.6965697,36.2624742 C29.1566413,36.2430575 29.5384029,35.8741416 29.5481916,35.4081426 C29.5579804,34.9227269 29.1762188,34.5149777 28.6769922,34.5052694 C28.6280484,34.5052694 28.6280484,34.5052694 25.2019832,34.7188523 C23.4889506,34.8256438 21.5703541,34.9518518 21.2473251,34.9712685 C20.6306333,34.9227269 20.483802,34.4081863 20.4446469,34.2528533 C20.3761256,33.9227706 20.4740132,33.4858965 20.9340848,33.2626053 L28.9608662,30.3792362 C28.9804437,30.3695279 29.0000212,30.3598196 29.0293875,30.3501113 C31.8485497,29.0783222 35.5291226,30.2239032 35.9696167,30.3598196 L40.7758968,32.7092314 L38.1329322,38.8934271 C36.8310274,38.0973454 35.2452487,37.8837625 33.776935,38.3206366 L22.9897239,41.5340884 C21.7073967,41.9224209 20.2880268,41.7767962 19.1035871,41.1360475 L2.20819124,32.0587744 C1.60128826,31.7286918 1.79706342,31.1559013 1.84600721,31.0394015 C1.90473975,30.8840685 2.15924746,30.3986528 2.77593919,30.5636942 L15.9026633,34.9033103 C16.362735,35.0586433 16.8717504,34.8062271 17.0283705,34.3499364 C17.1849906,33.8839374 16.9304829,33.3888134 16.4704113,33.2334804 L3.31432087,28.8744476 C3.29474335,28.8647393 3.2849546,28.8647393 3.26537708,28.8647393 C1.9634723,28.51524 0.700722551,29.1365721 0.201495906,30.3792362 C-0.307519497,31.6316086 0.172129632,32.9519393 1.36635808,33.6023963 L18.2715427,42.7087943 C19.8671102,43.5728342 21.775918,43.7670005 23.5085281,43.2427515 L34.2957391,40.0292998 C35.2844037,39.7380504 36.3513783,39.8739668 37.2225777,40.4273406 L42.7238596,43.8640836 C42.7532258,43.8835002 42.7728034,43.8932086 42.8021696,43.9029169 C42.8119584,43.9029169 42.8119584,43.9126252 42.8217472,43.9126252 L42.8315359,43.9126252 C42.8413247,43.9223335 42.8511134,43.9223335 42.8706909,43.9223335 C42.8902685,43.9320418 42.9196347,43.9417501 42.9392122,43.9514584 C42.949001,43.9514584 42.9685785,43.9611667 42.9783673,43.9611667 C42.9979448,43.9708751 43.0273111,43.9708751 43.0468886,43.9805834 C43.0566773,43.9805834 43.0762549,43.9805834 43.0860436,43.9902917 C43.1251986,43.9902917 43.1545649,44 43.1937199,44 C43.232875,44 43.27203,44 43.311185,43.9902917 C43.3209738,43.9902917 43.3405513,43.9902917 43.3503401,43.9805834 C43.3797063,43.9805834 43.3992839,43.9708751 43.4286501,43.9611667 C43.4384389,43.9611667 43.4580164,43.9514584 43.4678052,43.9514584 C43.4873827,43.9417501 43.516749,43.9320418 43.5363265,43.9223335 C43.5461152,43.9126252 43.5656927,43.9126252 43.5754815,43.9029169 C43.595059,43.8932086 43.6146365,43.8835002 43.6440028,43.8640836 C43.6537916,43.8543753 43.6733691,43.844667 43.6831578,43.844667 C43.7027353,43.8349587 43.7223129,43.815542 43.7418904,43.8058337 C43.7516791,43.7961254 43.7712567,43.7864171 43.7810454,43.7767088 C43.8006229,43.7572922 43.8104117,43.7475838 43.8299892,43.7281672 C43.839778,43.7184589 43.8495667,43.7087506 43.8691442,43.689334 C43.8887217,43.6699173 43.8985105,43.6505007 43.9082993,43.6310841 C43.918088,43.6213758 43.9278768,43.6019591 43.9376655,43.5922508 C43.9376655,43.5922508 43.9376655,43.5825425 43.9474543,43.5825425 C43.9474543,43.5728342 43.957243,43.5631259 43.957243,43.5631259 C43.9670318,43.5437093 43.9866093,43.5145843 43.9963981,43.4854594 L47.9119012,35.2139763 C47.9216899,35.1848514 47.9314787,35.1654347 47.9412675,35.1363098 C47.9510562,35.1071849 47.960845,35.0780599 47.9706337,35.0586433 C47.9804225,35.0295184 47.9804225,35.0003934 47.9804225,34.9712685 C47.9804225,34.9421435 47.9902112,34.9130186 47.9902112,34.8838936 C48,34.8547687 48,34.8256438 48,34.7965188 Z M45.9443609,35.2431012 L42.8217472,41.8350461 L39.6599784,39.8545501 L42.3714643,33.5053131 L45.9443609,35.2431012 Z" id="Shape" fill="#000000"></path>
            <path d="M15.0317545,14.8735005 L17.6388325,14.8735005 C18.7062974,14.8735005 19.5684807,15.697928 19.5684807,16.7186478 C19.5684807,17.7393675 18.7062974,18.563795 17.6388325,18.563795 L12.948145,18.563795 C12.4349407,18.563795 12.0141131,18.9661941 12.0141131,19.4569248 C12.0141131,19.9476554 12.4349407,20.3500545 12.948145,20.3500545 L15.4012616,20.3500545 L15.4012616,22.1068702 C15.4012616,22.5976009 15.8220892,23 16.3352935,23 C16.8484978,23 17.2693254,22.5976009 17.2693254,22.1068702 L17.2693254,20.3500545 L17.6490965,20.3500545 C19.7429702,20.3500545 21.4468085,18.7208288 21.4468085,16.7186478 C21.4468085,14.7164667 19.7429702,13.087241 17.6490965,13.087241 L15.0420186,13.087241 C13.9745536,13.087241 13.1123704,12.2628135 13.1123704,11.2420938 C13.1123704,10.221374 13.9745536,9.39694656 15.0420186,9.39694656 L19.6505934,9.39694656 C20.1637977,9.39694656 20.5846253,8.99454744 20.5846253,8.50381679 C20.5846253,8.01308615 20.1637977,7.61068702 19.6505934,7.61068702 L17.2795894,7.61068702 L17.2795894,5.89312977 C17.2795894,5.40239913 16.8587619,5 16.3455576,5 C15.8323533,5 15.4115257,5.40239913 15.4115257,5.89312977 L15.4115257,7.62050164 L15.0317545,7.62050164 C12.9378809,7.62050164 11.2340426,9.24972737 11.2340426,11.2519084 C11.2443066,13.2442748 12.948145,14.8735005 15.0317545,14.8735005 Z" id="Shape" fill="#3C92CA"></path>
            <path d="M16.345317,28 C24.2304249,28 30.6382979,21.7160452 30.6382979,14.0047896 C30.6382979,6.29353404 24.2206419,0 16.345317,0 C8.46999221,0 2.04255319,6.28395484 2.04255319,14.0047896 C2.04255319,21.7256244 8.4602092,28 16.345317,28 Z M16.345317,1.7434143 C23.2521237,1.7434143 28.8675727,7.24187479 28.8675727,14.0047896 C28.8675727,20.7677044 23.2521237,26.2661649 16.345317,26.2661649 C9.43851042,26.2661649 3.82306141,20.7677044 3.82306141,14.0047896 C3.82306141,7.24187479 9.43851042,1.7434143 16.345317,1.7434143 Z" id="Shape" fill="#000000"></path>
        </g>
    </g>
</svg>