<?xml version="1.0" encoding="UTF-8"?>
<svg width="50px" height="44px" viewBox="0 0 50 44" version="1.1" xmlns="http://www.w3.org/2000/svg" xmlns:xlink="http://www.w3.org/1999/xlink">
    <title>icon-pat-01</title>
    <defs></defs>
    <g id="Page-1" stroke="none" stroke-width="1" fill="none" fill-rule="evenodd">
        <g id="group" fill-rule="nonzero">
            <path d="M48.9583333,42.952381 L48.9583333,40.4949341 C48.9583333,39.9733536 48.7247945,39.4818642 48.3186401,39.1508612 C46.064483,37.3253293 43.6377102,36.1116515 43.1401711,35.870922 C43.0894018,35.8408308 43.0487863,35.7906788 43.0487863,35.7304965 L43.0487863,32.2700101 C43.4854023,31.9791287 43.7798643,31.4876393 43.7798643,30.9259372 L43.7798643,27.3350557 C43.7798643,25.5496454 42.3177083,24.0952381 40.5001672,24.0952381 L40.1041667,24.0952381 L39.7081661,24.0952381 C37.9007789,24.0952381 36.428469,25.539615 36.428469,27.3350557 L36.428469,30.9058764 C36.428469,31.4675785 36.722931,31.9590679 37.159547,32.2499493 L37.159547,35.7204661 C37.159547,35.7806484 37.1290854,35.8408308 37.0681623,35.8608916 C36.5706231,36.1016211 34.1438503,37.3152989 31.8896932,39.1408308 C31.4835388,39.4718338 31.25,39.9633232 31.25,40.4849037 L31.25,42.9423506" id="XMLID_1828_" fill="#A7A9AC"></path>
            <path d="M18.75,42.952381 L18.75,40.4949341 C18.75,39.9733536 18.5164612,39.4818642 18.1103068,39.1508612 C15.8561497,37.3253293 13.4293769,36.1116515 12.9318377,35.870922 C12.8810684,35.8408308 12.840453,35.7906788 12.840453,35.7304965 L12.840453,32.2700101 C13.277069,31.9791287 13.571531,31.4876393 13.571531,30.9259372 L13.571531,27.3350557 C13.571531,25.5496454 12.109375,24.0952381 10.2918339,24.0952381 L9.89583333,24.0952381 L9.49983276,24.0952381 C7.69244553,24.0952381 6.2201357,25.539615 6.2201357,27.3350557 L6.2201357,30.9058764 C6.2201357,31.4675785 6.51459767,31.9590679 6.95121369,32.2499493 L6.95121369,35.7204661 C6.95121369,35.7806484 6.9207521,35.8408308 6.85982894,35.8608916 C6.36228976,36.1016211 3.93551701,37.3152989 1.6813599,39.1408308 C1.27520547,39.4718338 1.04166667,39.9633232 1.04166667,40.4849037 L1.04166667,42.9423506" id="XMLID_1827_" fill="#3C92CA"></path>
            <path d="M23.9583333,20.952381 C23.4647409,20.952381 23.0599951,21.3355422 23.0599951,21.8028121 L23.0599951,27.1670702 L18.1536862,29.8491993 C17.7291967,30.0828342 17.581119,30.5968311 17.8279152,31.0080285 C17.9957367,31.2790451 18.2918921,31.4285714 18.6077913,31.4285714 C18.755869,31.4285714 18.9138186,31.3911898 19.0520245,31.3164267 L23.9583333,28.6342976 L28.8646422,31.3164267 C29.0028481,31.3911898 29.1607976,31.4285714 29.3088754,31.4285714 C29.6149027,31.4285714 29.92093,31.2790451 30.0887514,31.0080285 C30.3355477,30.6061765 30.1874699,30.0828342 29.7629804,29.8491993 L24.8566716,27.1670702 L24.8566716,21.8028121 C24.8467997,21.3355422 24.4519258,20.952381 23.9583333,20.952381 Z" id="Shape" fill="#000000"></path>
            <path d="M21.6087662,12.238303 C20.6628788,12.7258038 18.5757576,13.8734621 16.612013,15.4578399 C15.9848485,15.9656533 15.625,16.7273735 15.625,17.5297186 L15.625,20.0180043 C15.625,20.5258177 16.0465368,20.9422247 16.5606061,20.9422247 C17.0746753,20.9422247 17.4962121,20.5258177 17.4962121,20.0180043 L17.4962121,17.5297186 C17.4962121,17.2758119 17.6093074,17.0422178 17.8046537,16.8797175 C20.0151515,15.0922143 22.4107143,13.8937747 22.8630952,13.6703368 C23.2435065,13.4875239 23.4799784,13.111742 23.4799784,12.695335 L23.4799784,9.19142257 C23.4799784,8.88673453 23.3257576,8.59220276 23.0687229,8.42970247 C22.8630952,8.29767098 22.7397186,8.07423309 22.7397186,7.83048265 L22.7397186,4.1945387 C22.7397186,2.89453639 23.8089827,1.83828451 25.125,1.83828451 L25.9166667,1.83828451 C27.232684,1.83828451 28.3019481,2.89453639 28.3019481,4.1945387 L28.3019481,7.83048265 C28.3019481,8.07423309 28.1785714,8.29767098 27.9729437,8.42970247 C27.7159091,8.60235902 27.5616883,8.88673453 27.5616883,9.19142257 L27.5616883,12.7054913 C27.5616883,13.1218983 27.7981602,13.4976802 28.1785714,13.680493 C28.6412338,13.9039309 31.0265152,15.0922143 33.237013,16.8898737 C33.4323593,17.052374 33.5454545,17.2859682 33.5454545,17.5398749 L33.5454545,20.0281606 C33.5454545,20.535974 33.9669913,20.952381 34.4810606,20.952381 C34.9951299,20.952381 35.4166667,20.535974 35.4166667,20.0281606 L35.4166667,17.5398749 C35.4166667,16.7375297 35.0568182,15.9758096 34.4296537,15.4679962 C32.4761905,13.8836184 30.3787879,12.7258038 29.4329004,12.2484592 L29.4329004,9.6281421 C29.9058442,9.1507975 30.1731602,8.51095261 30.1731602,7.84063892 L30.1731602,4.1945387 C30.1731602,1.87890959 28.2711039,0 25.9269481,0 L25.1352814,0 C22.7911255,0 20.8890693,1.87890959 20.8890693,4.1945387 L20.8890693,7.83048265 C20.8890693,8.51095261 21.1563853,9.1507975 21.629329,9.61798583 L21.629329,12.238303 L21.6087662,12.238303 Z" id="Shape" fill="#000000"></path>
            <path d="M9.48929624,24.8766339 L10.2817863,24.8766339 C11.5991723,24.8766339 12.6695484,25.933398 12.6695484,27.2340308 L12.6695484,30.871738 C12.6695484,31.1156067 12.5460435,31.3391529 12.3402019,31.4712484 C12.0829,31.6439887 11.9285188,31.9285021 11.9285188,32.233338 L11.9285188,35.7491109 C11.9285188,36.1657198 12.1652366,36.541684 12.5460435,36.7245855 C13.009187,36.9481317 15.3969492,38.1369914 17.6097461,39.9355226 C17.8052955,40.0981017 17.9185084,40.3318092 17.9185084,40.585839 L17.9185084,43.0753314 C17.9185084,43.5833911 18.3404836,44 18.8550875,44 C19.3696915,44 19.7916667,43.5833911 19.7916667,43.0753314 L19.7916667,40.585839 C19.7916667,39.7831047 19.4314439,39.0210152 18.8036271,38.5129555 C16.8481323,36.9278093 14.7485483,35.7694333 13.8016771,35.2918572 L13.8016771,32.6702693 C14.2751127,32.1926932 14.5427067,31.552538 14.5427067,30.8818992 L14.5427067,27.244192 C14.5427067,24.9274398 12.6386722,23.047619 10.2920783,23.047619 L9.49958832,23.047619 C7.15299445,23.047619 5.24895996,24.9274398 5.24895996,27.244192 L5.24895996,30.871738 C5.24895996,31.552538 5.516554,32.1926932 5.9899896,32.6601081 L5.9899896,35.281696 C5.04311839,35.7694333 2.95382649,36.9176481 0.988039522,38.5027943 C0.360222742,39.010854 0,39.7729435 0,40.5756778 L0,43.0651702 C0,43.5732299 0.421975212,43.9898388 0.93657913,43.9898388 C1.45118305,43.9898388 1.87315826,43.5732299 1.87315826,43.0651702 L1.87315826,40.5756778 C1.87315826,40.321648 1.98637112,40.0879405 2.18192061,39.9253614 C4.39471746,38.1369914 6.79277171,36.9379705 7.24562316,36.7144243 C7.62643006,36.5315228 7.86314786,36.1555586 7.86314786,35.7389497 L7.86314786,32.233338 C7.86314786,31.9285021 7.70876668,31.6338275 7.45146473,31.4712484 C7.24562316,31.3391529 7.12211822,31.1156067 7.12211822,30.871738 L7.12211822,27.2340308 C7.10153406,25.933398 8.17191021,24.8766339 9.48929624,24.8766339 Z" id="Shape" fill="#000000"></path>
            <path d="M31.1953463,38.5027943 C30.5681818,39.010854 30.2083333,39.7729435 30.2083333,40.5756778 L30.2083333,43.0651702 C30.2083333,43.5732299 30.6298701,43.9898388 31.1439394,43.9898388 C31.6580087,43.9898388 32.0795455,43.5732299 32.0795455,43.0651702 L32.0795455,40.5756778 C32.0795455,40.321648 32.1926407,40.0879405 32.387987,39.9253614 C34.5984848,38.1369914 36.9940476,36.9379705 37.4464286,36.7144243 C37.8268398,36.5315228 38.0633117,36.1555586 38.0633117,35.7389497 L38.0633117,32.233338 C38.0633117,31.9285021 37.9090909,31.6338275 37.6520563,31.4712484 C37.4464286,31.3391529 37.3230519,31.1156067 37.3230519,30.871738 L37.3230519,27.2340308 C37.3230519,25.933398 38.392316,24.8766339 39.7083333,24.8766339 L40.5,24.8766339 C41.8160173,24.8766339 42.8852814,25.933398 42.8852814,27.2340308 L42.8852814,30.871738 C42.8852814,31.1156067 42.7619048,31.3391529 42.5562771,31.4712484 C42.2992424,31.6439887 42.1450216,31.9285021 42.1450216,32.233338 L42.1450216,35.7491109 C42.1450216,36.1657198 42.3814935,36.541684 42.7619048,36.7245855 C43.2245671,36.9481317 45.6098485,38.1369914 47.8203463,39.9355226 C48.0156926,40.0981017 48.1287879,40.3318092 48.1287879,40.585839 L48.1287879,43.0753314 C48.1287879,43.5833911 48.5503247,44 49.0643939,44 C49.5784632,44 50,43.5833911 50,43.0753314 L50,40.585839 C50,39.7831047 49.6401515,39.0210152 49.012987,38.5129555 C47.0595238,36.9278093 44.9621212,35.7694333 44.0162338,35.2918572 L44.0162338,32.6702693 C44.4891775,32.1926932 44.7564935,31.552538 44.7564935,30.8818992 L44.7564935,27.244192 C44.7564935,24.9274398 42.8544372,23.047619 40.5102814,23.047619 L39.7186147,23.047619 C37.3744589,23.047619 35.4724026,24.9274398 35.4724026,27.244192 L35.4724026,30.871738 C35.4724026,31.552538 35.7397186,32.1926932 36.2126623,32.6601081 L36.2126623,35.281696 C35.2462121,35.7694333 33.1590909,36.9176481 31.1953463,38.5027943 Z" id="Shape" fill="#000000"></path>
        </g>
    </g>
</svg>