<?xml version="1.0" encoding="UTF-8"?>
<svg width="42px" height="44px" viewBox="0 0 42 44" version="1.1" xmlns="http://www.w3.org/2000/svg" xmlns:xlink="http://www.w3.org/1999/xlink">
    <title>icon-pat-02</title>
    <defs></defs>
    <g id="Page-1" stroke="none" stroke-width="1" fill="none" fill-rule="evenodd">
        <g id="user" fill-rule="nonzero">
            <path d="M0.909257899,37 C1.41440118,37 1.8185158,36.5982231 1.8185158,36.096002 L1.8185158,31.5029615 C1.8185158,30.7998519 2.13078619,30.1332675 2.67266716,29.6949654 C6.77810434,26.3437808 11.2325496,24.106614 12.086701,23.6957058 C12.5091844,23.4948174 12.7663483,23.0747779 12.7663483,22.6182132 L12.7663483,16.1623889 C12.7663483,15.8610563 12.6102131,15.5779862 12.3622337,15.4136229 C11.7652461,15.0209773 11.4070536,14.3635242 11.4070536,13.6512833 L11.4070536,6.93978282 C11.4070536,4.10908193 13.7215283,1.80799605 16.5686995,1.80799605 L18.0198384,1.80799605 C20.8670096,1.80799605 23.1814842,4.10908193 23.1814842,6.93978282 L23.1814842,13.6330207 C23.1814842,14.3452616 22.8232917,15.0027147 22.2263042,15.3953603 C21.9691403,15.5597236 21.8221896,15.8427937 21.8221896,16.1441264 L21.8221896,22.5999506 C21.8221896,23.1021718 22.2263042,23.5039487 22.7314475,23.5039487 C23.2365907,23.5039487 23.6407054,23.1021718 23.6407054,22.5999506 L23.6407054,16.5824284 C24.4948567,15.8427937 25,14.7653011 25,13.6238894 L25,6.93978282 C25,3.11377098 21.8681117,0 18.0198384,0 L16.5595151,0 C12.7112417,0 9.57935342,3.11377098 9.57935342,6.93978282 L9.57935342,13.6330207 C9.57935342,14.7744324 10.0753123,15.851925 10.9386481,16.5915597 L10.9386481,22.2346989 C9.54261572,22.9378085 5.38207201,25.1384501 1.51542983,28.2978776 C0.551065393,29.0831688 0,30.2519743 0,31.5029615 L0,36.096002 C9.7888878e-16,36.5890918 0.404114622,37 0.909257899,37 Z" id="Shape" fill="#2C2F33"></path>
            <path d="M17.2763158,23 C16.874269,23 16.5526316,23.3974194 16.5526316,23.8941935 C16.5526316,24.2735484 16.4210526,24.6077419 16.2090643,24.8516129 C16.1652047,24.8877419 16.121345,24.923871 16.0847953,24.9780645 C15.9166667,25.1225806 15.7119883,25.203871 15.5,25.203871 C14.9225146,25.203871 14.4473684,24.6167742 14.4473684,23.9032258 C14.4473684,23.4064516 14.125731,23.0090323 13.7236842,23.0090323 C13.3216374,23.0090323 13,23.4064516 13,23.9032258 C13,24.6348387 13.2046784,25.3032258 13.5555556,25.836129 L13.0219298,41.1729032 C13.0146199,41.4348387 13.1023392,41.6967742 13.2631579,41.8774194 L14.9663743,43.7741935 C15.1052632,43.9277419 15.2807018,44 15.4488304,44 C15.624269,44 15.7997076,43.9187097 15.9312865,43.7651613 L17.6564327,41.8322581 C17.8172515,41.6516129 17.9049708,41.3987097 17.8976608,41.1277419 L17.3421053,25.9625806 C17.751462,25.4116129 18,24.68 18,23.876129 C18,23.3974194 17.6783626,23 17.2763158,23 Z M15.4415205,41.9045161 L14.4766082,40.8296774 L14.9663743,26.9109677 C15.1418129,26.956129 15.3172515,26.9832258 15.5,26.9832258 C15.6461988,26.9832258 15.7850877,26.9651613 15.9239766,26.9380645 L16.4283626,40.8025806 L15.4415205,41.9045161 Z" id="Shape" fill="#2C2F33"></path>
            <path d="M35.7874016,27 L41.2204724,27 C41.6535433,27 42,26.6531532 42,26.2195946 C42,24.6981982 41.4488189,23.2398649 40.4409449,22.1047297 C39.2598425,20.7646396 37.5669291,20 35.7795276,20 C35.3464567,20 35,20.3468468 35,20.7804054 L35,26.2195946 C35.007874,26.6531532 35.3543307,27 35.7874016,27 Z M36.5669291,21.6238739 C37.6062992,21.7972973 38.5669291,22.3333333 39.2755906,23.1373874 C39.8503937,23.7916667 40.2283465,24.5878378 40.3779528,25.4391892 L36.5669291,25.4391892 L36.5669291,21.6238739 Z" id="Shape" fill="#3C92CA"></path>
            <path d="M31.5,38 C36.1884576,38 40,34.1884576 40,29.5 C40,29.0224719 39.6179775,28.6404494 39.1404494,28.6404494 L32.3595506,28.6404494 L32.3595506,21.8595506 C32.3595506,21.3820225 31.9775281,21 31.5,21 C26.8115424,21 23,24.8115424 23,29.5 C23,34.1884576 26.8115424,38 31.5,38 Z M30.6404494,22.7798774 L30.6404494,29.5 C30.6404494,29.9775281 31.0224719,30.3595506 31.5,30.3595506 L38.2201226,30.3595506 C37.7946885,33.6935649 34.9468846,36.2808989 31.5,36.2808989 C27.7665986,36.2808989 24.7191011,33.2420838 24.7191011,29.5 C24.7191011,26.0617978 27.3064351,23.2053115 30.6404494,22.7798774 Z" id="Shape" fill="#3C92CA"></path>
        </g>
    </g>
</svg>