<?xml version="1.0" encoding="UTF-8"?>
<svg width="495px" height="252px" viewBox="0 0 495 252" version="1.1" xmlns="http://www.w3.org/2000/svg" xmlns:xlink="http://www.w3.org/1999/xlink">
    <!-- Generator: Sketch 48.2 (47327) - http://www.bohemiancoding.com/sketch -->
    <title>wasi-404</title>
    <desc>Created with Sketch.</desc>
    <defs></defs>
    <g id="Page-1" stroke="none" stroke-width="1" fill="none" fill-rule="evenodd">
        <g id="wasi" fill="#FFFFFF">
            <path d="M132.061524,164.726562 L156.231446,164.726562 L156.231446,198.857422 L132.061524,198.857422 L132.061524,245 L89.72754,245 L89.72754,198.857422 L2.27636814,198.857422 L0.372071266,172.197266 L89.2880869,31.71875 L132.061524,31.71875 L132.061524,164.726562 Z M42.5595713,164.726562 L89.72754,164.726562 L89.72754,89.4335938 L86.9443369,94.2675781 L42.5595713,164.726562 Z" id="4"></path>
            <path d="M470.061524,164.726562 L494.231446,164.726562 L494.231446,198.857422 L470.061524,198.857422 L470.061524,245 L427.72754,245 L427.72754,198.857422 L340.276368,198.857422 L338.372071,172.197266 L427.288087,31.71875 L470.061524,31.71875 L470.061524,164.726562 Z M380.559571,164.726562 L427.72754,164.726562 L427.72754,89.4335938 L424.944337,94.2675781 L380.559571,164.726562 Z" id="4-copy"></path>
            <path d="M250,252 C190.353247,252 142,203.870611 142,144.5 C142,85.1293894 190.353247,37 250,37 C309.646753,37 358,85.1293894 358,144.5 C358,203.870611 309.646753,252 250,252 Z M250,229.758621 C297.306045,229.758621 335.655172,191.587036 335.655172,144.5 C335.655172,97.412964 297.306045,59.2413793 250,59.2413793 C202.693955,59.2413793 164.344828,97.412964 164.344828,144.5 C164.344828,191.587036 202.693955,229.758621 250,229.758621 Z" id="Oval-6-Copy"></path>
            <path d="M217.492222,93.975071 C214.741618,94.6515145 212.335068,96.427754 210.646823,98.880437 L210.068519,98.880437 L184,130.129367 L204.097895,130.129367 L204.097895,186.324797 C204.097895,193.869673 209.412436,200 215.960449,200 L287.540214,200 C294.103782,200 299.417408,193.869673 299.417408,186.324797 L299.417408,130.129367 L318,130.129367 L295.072807,104.113441 C290.618402,99.0994758 290.353041,93.6759633 283.539668,93.6759633 L231.934267,93.6759633 C232.090739,93.1412509 232.183158,92.5448762 232.183158,91.9466608 L232.183158,90.2017126 C232.183158,87.3247569 230.168244,85 227.667445,85 L221.650155,85 C219.149356,85 217.133527,87.3256772 217.133527,90.2017126 L217.133527,91.9466608 C217.132612,92.6709615 217.257972,93.3464847 217.492222,93.975071 L217.492222,93.975071 Z" id="Shape-Copy-5"></path>
            <path d="M229,48 L240.858659,0 C244.782667,18.3131387 271.918787,33.4670305 286,43.7629663 L229,48 Z" id="Shape-Copy-4"></path>
        </g>
    </g>
</svg>