<?xml version="1.0" encoding="UTF-8"?>
<svg width="469px" height="252px" viewBox="0 0 469 252" version="1.1" xmlns="http://www.w3.org/2000/svg" xmlns:xlink="http://www.w3.org/1999/xlink">
    <!-- Generator: Sketch 48.2 (47327) - http://www.bohemiancoding.com/sketch -->
    <title>wasi-401</title>
    <desc>Created with Sketch.</desc>
    <defs></defs>
    <g id="Page-1" stroke="none" stroke-width="1" fill="none" fill-rule="evenodd">
        <g id="Group" transform="translate(1.000000, 0.000000)" fill="#FFFFFF">
            <path d="M146.903861,160.997597 L185.795803,160.997597 L185.795803,198.972279 L146.903861,198.972279 L146.903861,250.311441 L99.8022171,250.311441 L99.8022171,198.972279 L2.50228132,198.972279 L0.383522248,169.309652 L99.3132727,13.0104248 L146.903861,13.0104248 L146.903861,160.997597 Z M55.6890896,157.375256 L106.77203,157.375256 L106.77203,75.832923 L103.757819,81.0681311 L55.6890896,157.375256 Z M462.478738,250.311441 L415.045272,250.311441 L415.045272,67.4710211 L358.420546,85.0328927 L358.420546,46.4624272 L457.390719,11.0104248 L462.478738,11.0104248 L462.478738,250.311441 Z" id="401"></path>
            <g id="wasi-404" transform="translate(165.000000, 0.000000)" fill-rule="nonzero">
                <path d="M108,252 C48.353247,252 0,203.870611 0,144.5 C0,85.1293894 48.353247,37 108,37 C167.646753,37 216,85.1293894 216,144.5 C216,203.870611 167.646753,252 108,252 Z M108,229.758621 C155.306045,229.758621 193.655172,191.587036 193.655172,144.5 C193.655172,97.412964 155.306045,59.2413793 108,59.2413793 C60.693955,59.2413793 22.344828,97.412964 22.344828,144.5 C22.344828,191.587036 60.693955,229.758621 108,229.758621 Z" id="Oval-6-Copy"></path>
                <path d="M75.492222,93.975071 C72.741618,94.6515145 70.335068,96.427754 68.646823,98.880437 L68.068519,98.880437 L42,130.129367 L62.097895,130.129367 L62.097895,186.324797 C62.097895,193.869673 67.412436,200 73.960449,200 L145.540214,200 C152.103782,200 157.417408,193.869673 157.417408,186.324797 L157.417408,130.129367 L176,130.129367 L153.072807,104.113441 C148.618402,99.0994758 148.353041,93.6759633 141.539668,93.6759633 L89.934267,93.6759633 C90.090739,93.1412509 90.183158,92.5448762 90.183158,91.9466608 L90.183158,90.2017126 C90.183158,87.3247569 88.168244,85 85.667445,85 L79.650155,85 C77.149356,85 75.133527,87.3256772 75.133527,90.2017126 L75.133527,91.9466608 C75.132612,92.6709615 75.257972,93.3464847 75.492222,93.975071 Z" id="Shape-Copy-5"></path>
                <path d="M87,48 L98.858659,0 C102.782667,18.3131387 129.918787,33.4670305 144,43.7629663 L87,48 Z" id="Shape-Copy-4"></path>
            </g>
        </g>
    </g>
</svg>